<svg width="30" height="30" viewBox="0 0 30 30" fill="none" xmlns="http://www.w3.org/2000/svg">
<g clip-path="url(#clip0_136_2131)">
<g clip-path="url(#clip1_136_2131)">
<g clip-path="url(#clip2_136_2131)">
<path d="M14.3757 1.30859C10.676 1.30859 7.12778 2.77832 4.51164 5.39445C1.89551 8.01059 0.425781 11.5588 0.425781 15.2586C0.425781 18.9584 1.89551 22.5066 4.51164 25.1228C7.12778 27.7389 10.676 29.2086 14.3757 29.2086C18.0756 29.2086 21.6238 27.7389 24.2399 25.1228C26.856 22.5066 28.3257 18.9584 28.3257 15.2586C28.3257 11.5588 26.856 8.01059 24.2399 5.39445C21.6238 2.77832 18.0756 1.30859 14.3757 1.30859Z" fill="#B245F0"/>
<path d="M16.2645 18.9551H19.8746L20.4414 15.2876H16.2637V13.2833C16.2637 11.7598 16.7615 10.4088 18.1866 10.4088H20.4766V7.20843C20.0743 7.1541 19.2233 7.03516 17.6154 7.03516C14.2578 7.03516 12.2894 8.80828 12.2894 12.8479V15.2876H8.83789V18.9551H12.2894V29.0351C12.973 29.1378 13.6654 29.2076 14.376 29.2076C15.0185 29.2076 15.6455 29.1488 16.2645 29.0651V18.9551Z" fill="white"/>
</g>
</g>
</g>
<defs>
<clipPath id="clip0_136_2131">
<rect width="28.8" height="28.8" fill="white" transform="translate(0.277344 0.859375)"/>
</clipPath>
<clipPath id="clip1_136_2131">
<rect width="28.8" height="28.8" fill="white" transform="translate(0.277344 0.859375)"/>
</clipPath>
<clipPath id="clip2_136_2131">
<rect width="28.8" height="28.8" fill="white" transform="translate(0.277344 0.859375)"/>
</clipPath>
</defs>
</svg>
