<svg width="113" height="113" viewBox="0 0 113 113" fill="none" xmlns="http://www.w3.org/2000/svg">
<g clip-path="url(#clip0_136_5076)">
<g clip-path="url(#clip1_136_5076)">
<mask id="mask0_136_5076" style="mask-type:luminance" maskUnits="userSpaceOnUse" x="0" y="0" width="113" height="113">
<path d="M84.8075 0.822266H28.8707C13.4242 0.822266 0.902344 13.3441 0.902344 28.7907V84.7275C0.902344 100.174 13.4242 112.696 28.8707 112.696H84.8075C100.254 112.696 112.776 100.174 112.776 84.7275V28.7907C112.776 13.3441 100.254 0.822266 84.8075 0.822266Z" fill="white"/>
</mask>
<g mask="url(#mask0_136_5076)">
<mask id="mask1_136_5076" style="mask-type:luminance" maskUnits="userSpaceOnUse" x="0" y="0" width="113" height="113">
<path d="M84.8075 0.822266H28.8707C13.4242 0.822266 0.902344 13.3441 0.902344 28.7907V84.7275C0.902344 100.174 13.4242 112.696 28.8707 112.696H84.8075C100.254 112.696 112.776 100.174 112.776 84.7275V28.7907C112.776 13.3441 100.254 0.822266 84.8075 0.822266Z" fill="white"/>
</mask>
<g mask="url(#mask1_136_5076)">
<g filter="url(#filter0_di_136_5076)">
<mask id="mask2_136_5076" style="mask-type:luminance" maskUnits="userSpaceOnUse" x="0" y="0" width="114" height="114">
<path d="M85.2386 0.388672H28.4371C12.9906 0.388672 0.46875 12.9105 0.46875 28.3571V85.1585C0.46875 100.605 12.9906 113.127 28.4371 113.127H85.2386C100.685 113.127 113.207 100.605 113.207 85.1585V28.3571C113.207 12.9105 100.685 0.388672 85.2386 0.388672Z" fill="white"/>
</mask>
<g mask="url(#mask2_136_5076)">
<path d="M85.2386 0.388672H28.4371C12.9906 0.388672 0.46875 12.9105 0.46875 28.3571V85.1585C0.46875 100.605 12.9906 113.127 28.4371 113.127H85.2386C100.685 113.127 113.207 100.605 113.207 85.1585V28.3571C113.207 12.9105 100.685 0.388672 85.2386 0.388672Z" fill="url(#paint0_linear_136_5076)" fill-opacity="0.04"/>
<g opacity="0.5" filter="url(#filter1_f_136_5076)">
<path d="M23.9561 47.2597C23.9561 39.075 23.9561 34.9826 25.5489 31.8565C26.9501 29.1067 29.1857 26.871 31.9356 25.4699C35.0617 23.877 39.1541 23.877 47.3388 23.877H66.3373C74.522 23.877 78.6143 23.877 81.7405 25.4699C84.4904 26.871 86.726 29.1067 88.1272 31.8565C89.72 34.9826 89.72 39.075 89.72 47.2597V66.2583C89.72 74.443 89.72 78.5354 88.1272 81.6614C86.726 84.4113 84.4904 86.647 81.7405 88.0481C78.6143 89.6409 74.522 89.6409 66.3373 89.6409H47.3388C39.1541 89.6409 35.0617 89.6409 31.9356 88.0481C29.1857 86.647 26.9501 84.4113 25.5489 81.6614C23.9561 78.5354 23.9561 74.443 23.9561 66.2583V47.2597Z" fill="url(#paint1_linear_136_5076)"/>
</g>
<path d="M23.958 47.2558C23.958 39.0711 23.958 34.9787 25.5508 31.8525C26.9519 29.1028 29.1876 26.8671 31.9375 25.466C35.0636 23.873 39.1559 23.873 47.3408 23.873H66.3392C74.5239 23.873 78.6163 23.873 81.7425 25.466C84.4922 26.8671 86.7279 29.1028 88.129 31.8525C89.722 34.9787 89.722 39.0711 89.722 47.2558V66.2544C89.722 74.4391 89.722 78.5314 88.129 81.6576C86.7279 84.4074 84.4922 86.6431 81.7425 88.0442C78.6163 89.6371 74.5239 89.6371 66.3392 89.6371H47.3408C39.1559 89.6371 35.0636 89.6371 31.9375 88.0442C29.1876 86.6431 26.9519 84.4074 25.5508 81.6576C23.958 78.5314 23.958 74.4391 23.958 66.2544V47.2558Z" fill="url(#paint2_linear_136_5076)"/>
<path d="M34.0907 46.2134C33.3594 47.6047 33.3594 49.426 33.3594 53.0687V60.4401C33.3594 64.0828 33.3594 65.9041 34.0907 67.2954C34.7341 68.5191 35.7607 69.5142 37.0234 70.1378C38.4588 70.8467 40.338 70.8467 44.0963 70.8467H55.4298C59.1881 70.8467 61.0672 70.8467 62.5027 70.1378C63.7653 69.5142 64.792 68.5191 65.4353 67.2954C66.1668 65.9041 66.1668 64.0828 66.1668 60.4401V53.0687C66.1668 49.426 66.1668 47.6047 65.4353 46.2134C64.792 44.9895 63.7653 43.9946 62.5027 43.371C61.0672 42.6621 59.1881 42.6621 55.4298 42.6621H44.0963C40.338 42.6621 38.4588 42.6621 37.0234 43.371C35.7607 43.9946 34.7341 44.9895 34.0907 46.2134Z" fill="white"/>
<path d="M68.7229 50.6488L76.0457 44.6993C77.7441 43.3194 80.3319 44.4898 80.3319 46.6378V66.9326C80.3319 69.0702 77.7657 70.244 76.0632 68.8851L68.7428 63.0421C68.0548 62.4929 67.6562 61.6744 67.6562 60.8105V52.8641C67.6562 52.0091 68.0468 51.198 68.7229 50.6488Z" fill="white"/>
<g filter="url(#filter2_f_136_5076)">
<path d="M58.0181 127.219C72.9354 127.219 85.0283 120.384 85.0283 111.952C85.0283 103.521 72.9354 96.6855 58.0181 96.6855C43.1007 96.6855 31.0078 103.521 31.0078 111.952C31.0078 120.384 43.1007 127.219 58.0181 127.219Z" fill="#22C73D"/>
</g>
</g>
<path d="M85.2386 0.388672H28.4371C12.9906 0.388672 0.46875 12.9105 0.46875 28.3571V85.1585C0.46875 100.605 12.9906 113.127 28.4371 113.127H85.2386C100.685 113.127 113.207 100.605 113.207 85.1585V28.3571C113.207 12.9105 100.685 0.388672 85.2386 0.388672Z" stroke="url(#paint3_linear_136_5076)" stroke-opacity="0.5" stroke-width="1.87897"/>
</g>
<g style="mix-blend-mode:screen" filter="url(#filter3_f_136_5076)">
<path d="M40.8318 61.8842C52.5062 61.8842 61.9702 52.4202 61.9702 40.7458C61.9702 29.0714 52.5062 19.6074 40.8318 19.6074C29.1573 19.6074 19.6934 29.0714 19.6934 40.7458C19.6934 52.4202 29.1573 61.8842 40.8318 61.8842Z" fill="white" fill-opacity="0.18"/>
</g>
</g>
</g>
</g>
</g>
<defs>
<filter id="filter0_di_136_5076" x="-19.2605" y="-28.7354" width="189.776" height="189.776" filterUnits="userSpaceOnUse" color-interpolation-filters="sRGB">
<feFlood flood-opacity="0" result="BackgroundImageFix"/>
<feColorMatrix in="SourceAlpha" type="matrix" values="0 0 0 0 0 0 0 0 0 0 0 0 0 0 0 0 0 0 127 0" result="hardAlpha"/>
<feOffset dx="18.7898" dy="9.39485"/>
<feGaussianBlur stdDeviation="18.7898"/>
<feComposite in2="hardAlpha" operator="out"/>
<feColorMatrix type="matrix" values="0 0 0 0 0 0 0 0 0 0 0 0 0 0 0 0 0 0 0.08 0"/>
<feBlend mode="normal" in2="BackgroundImageFix" result="effect1_dropShadow_136_5076"/>
<feBlend mode="normal" in="SourceGraphic" in2="effect1_dropShadow_136_5076" result="shape"/>
<feColorMatrix in="SourceAlpha" type="matrix" values="0 0 0 0 0 0 0 0 0 0 0 0 0 0 0 0 0 0 127 0" result="hardAlpha"/>
<feOffset/>
<feGaussianBlur stdDeviation="9.39485"/>
<feComposite in2="hardAlpha" operator="arithmetic" k2="-1" k3="1"/>
<feColorMatrix type="matrix" values="0 0 0 0 0.133333 0 0 0 0 0.780392 0 0 0 0 0.239216 0 0 0 0.32 0"/>
<feBlend mode="normal" in2="shape" result="effect2_innerShadow_136_5076"/>
</filter>
<filter id="filter1_f_136_5076" x="-4.2284" y="-4.3075" width="122.133" height="122.133" filterUnits="userSpaceOnUse" color-interpolation-filters="sRGB">
<feFlood flood-opacity="0" result="BackgroundImageFix"/>
<feBlend mode="normal" in="SourceGraphic" in2="BackgroundImageFix" result="shape"/>
<feGaussianBlur stdDeviation="14.0922" result="effect1_foregroundBlur_136_5076"/>
</filter>
<filter id="filter2_f_136_5076" x="-11.269" y="54.4088" width="138.574" height="115.087" filterUnits="userSpaceOnUse" color-interpolation-filters="sRGB">
<feFlood flood-opacity="0" result="BackgroundImageFix"/>
<feBlend mode="normal" in="SourceGraphic" in2="BackgroundImageFix" result="shape"/>
<feGaussianBlur stdDeviation="21.1384" result="effect1_foregroundBlur_136_5076"/>
</filter>
<filter id="filter3_f_136_5076" x="-27.281" y="-27.3669" width="136.225" height="136.225" filterUnits="userSpaceOnUse" color-interpolation-filters="sRGB">
<feFlood flood-opacity="0" result="BackgroundImageFix"/>
<feBlend mode="normal" in="SourceGraphic" in2="BackgroundImageFix" result="shape"/>
<feGaussianBlur stdDeviation="23.4872" result="effect1_foregroundBlur_136_5076"/>
</filter>
<linearGradient id="paint0_linear_136_5076" x1="0.46875" y1="0.388672" x2="113.207" y2="113.127" gradientUnits="userSpaceOnUse">
<stop stop-color="#F8FBFF"/>
<stop offset="1" stop-color="white" stop-opacity="0"/>
</linearGradient>
<linearGradient id="paint1_linear_136_5076" x1="56.838" y1="23.877" x2="56.838" y2="89.6409" gradientUnits="userSpaceOnUse">
<stop stop-color="#61F677"/>
<stop offset="1" stop-color="#10BC2B"/>
</linearGradient>
<linearGradient id="paint2_linear_136_5076" x1="56.84" y1="23.873" x2="56.84" y2="89.6371" gradientUnits="userSpaceOnUse">
<stop stop-color="#61F677"/>
<stop offset="1" stop-color="#10BC2B"/>
</linearGradient>
<linearGradient id="paint3_linear_136_5076" x1="2.81746" y1="-1.96004" x2="109.684" y2="113.127" gradientUnits="userSpaceOnUse">
<stop stop-color="#D8D8D8" stop-opacity="0.05"/>
<stop offset="1" stop-color="white" stop-opacity="0.4"/>
</linearGradient>
<clipPath id="clip0_136_5076">
<rect width="111.874" height="111.874" fill="white" transform="translate(0.902344 0.822266)"/>
</clipPath>
<clipPath id="clip1_136_5076">
<rect width="111.874" height="111.874" fill="white" transform="translate(0.902344 0.822266)"/>
</clipPath>
</defs>
</svg>
