<svg width="30" height="30" viewBox="0 0 30 30" fill="none" xmlns="http://www.w3.org/2000/svg">
<g clip-path="url(#clip0_136_2121)">
<g clip-path="url(#clip1_136_2121)">
<g clip-path="url(#clip2_136_2121)">
<path d="M22.1548 29.1939L6.66295 29.2086C3.25475 29.2117 0.463905 26.4262 0.460032 23.018L0.445315 7.52624C0.442216 4.11804 3.22765 1.32719 6.63585 1.32331L22.1276 1.3086C25.5358 1.3055 28.3267 4.09093 28.3306 7.49913L28.3453 22.9909C28.3491 26.4 25.563 29.1908 22.1548 29.1939Z" fill="url(#paint0_radial_136_2121)"/>
<path d="M22.1548 29.1939L6.66295 29.2086C3.25475 29.2117 0.463905 26.4262 0.460032 23.018L0.445315 7.52624C0.442216 4.11804 3.22765 1.32719 6.63585 1.32331L22.1276 1.3086C25.5358 1.3055 28.3267 4.09093 28.3306 7.49913L28.3453 22.9909C28.3491 26.4 25.563 29.1908 22.1548 29.1939Z" fill="url(#paint1_radial_136_2121)"/>
<path d="M14.3958 20.6802C11.4066 20.6802 8.97363 18.248 8.97363 15.2581C8.97363 12.2682 11.4066 9.83594 14.3958 9.83594C17.3849 9.83594 19.8179 12.2682 19.8179 15.2581C19.8179 18.248 17.3849 20.6802 14.3958 20.6802ZM14.3958 11.3851C12.2602 11.3851 10.5228 13.1225 10.5228 15.2581C10.5228 17.3937 12.2602 19.131 14.3958 19.131C16.5313 19.131 18.2688 17.3937 18.2688 15.2581C18.2688 13.1225 16.5313 11.3851 14.3958 11.3851Z" fill="white"/>
<path d="M20.2049 10.6128C20.8466 10.6128 21.3668 10.0926 21.3668 9.45095C21.3668 8.80925 20.8466 8.28906 20.2049 8.28906C19.5632 8.28906 19.043 8.80925 19.043 9.45095C19.043 10.0926 19.5632 10.6128 20.2049 10.6128Z" fill="white"/>
<path d="M19.0434 25.3289H9.74828C6.75917 25.3289 4.32617 22.8966 4.32617 19.9067V10.6116C4.32617 7.62168 6.75917 5.18945 9.74828 5.18945H19.0434C22.0326 5.18945 24.4655 7.62168 24.4655 10.6116V19.9067C24.4655 22.8966 22.0326 25.3289 19.0434 25.3289ZM9.74828 6.73864C7.61276 6.73864 5.87536 8.47605 5.87536 10.6116V19.9067C5.87536 22.0422 7.61276 23.7797 9.74828 23.7797H19.0434C21.1789 23.7797 22.9164 22.0422 22.9164 19.9067V10.6116C22.9164 8.47605 21.1789 6.73864 19.0434 6.73864H9.74828Z" fill="white"/>
</g>
</g>
</g>
<defs>
<radialGradient id="paint0_radial_136_2121" cx="0" cy="0" r="1" gradientUnits="userSpaceOnUse" gradientTransform="translate(10.8171 29.2288) scale(34.7783)">
<stop stop-color="#FFDD55"/>
<stop offset="0.328" stop-color="#FF543F"/>
<stop offset="0.348" stop-color="#FC5245"/>
<stop offset="0.504" stop-color="#E64771"/>
<stop offset="0.643" stop-color="#D53E91"/>
<stop offset="0.761" stop-color="#CC39A4"/>
<stop offset="0.841" stop-color="#C837AB"/>
</radialGradient>
<radialGradient id="paint1_radial_136_2121" cx="0" cy="0" r="1" gradientUnits="userSpaceOnUse" gradientTransform="translate(4.93485 0.960265) scale(23.0929 15.3868)">
<stop stop-color="#4168C9"/>
<stop offset="0.999" stop-color="#4168C9" stop-opacity="0"/>
</radialGradient>
<clipPath id="clip0_136_2121">
<rect width="28.8" height="28.8" fill="white" transform="translate(0.296875 0.859375)"/>
</clipPath>
<clipPath id="clip1_136_2121">
<rect width="28.8" height="28.8" fill="white" transform="translate(0.296875 0.859375)"/>
</clipPath>
<clipPath id="clip2_136_2121">
<rect width="28.8" height="28.8" fill="white" transform="translate(0.296875 0.859375)"/>
</clipPath>
</defs>
</svg>
