<svg width="30" height="30" viewBox="0 0 30 30" fill="none" xmlns="http://www.w3.org/2000/svg">
<g clip-path="url(#clip0_136_2147)">
<g clip-path="url(#clip1_136_2147)">
<g clip-path="url(#clip2_136_2147)">
<path d="M28.8961 25.3336C28.8961 27.4741 27.1617 29.2086 25.0211 29.2086H4.8711C2.73132 29.2086 0.996094 27.4741 0.996094 25.3336V5.1836C0.996094 3.04305 2.73132 1.30859 4.8711 1.30859H25.0211C27.1617 1.30859 28.8961 3.04305 28.8961 5.1836V25.3336Z" fill="#A22BE6"/>
<path d="M5.64648 11.3839H9.52152V24.559H5.64648V11.3839ZM7.57236 9.83398H7.55066C6.39436 9.83398 5.64648 8.97218 5.64648 7.8957C5.64648 6.79598 6.4176 5.95898 7.59483 5.95898C8.77361 5.95898 9.49974 6.79598 9.52152 7.8957C9.52152 8.97141 8.77361 9.83398 7.57236 9.83398ZM24.2465 24.559H20.3715V17.5073C20.3715 15.8038 19.4221 14.6413 17.8976 14.6413C16.7344 14.6413 16.1051 15.4256 15.7997 16.1836C15.6881 16.4548 15.7214 17.2051 15.7214 17.584V24.559H11.8465V11.3839H15.7214V13.4114C16.2803 12.5465 17.1552 11.3839 19.3934 11.3839C22.1663 11.3839 24.2457 13.1277 24.2457 17.0214L24.2465 24.559Z" fill="white"/>
</g>
</g>
</g>
<defs>
<clipPath id="clip0_136_2147">
<rect width="28.8" height="28.8" fill="white" transform="translate(0.24707 0.859375)"/>
</clipPath>
<clipPath id="clip1_136_2147">
<rect width="28.8" height="28.8" fill="white" transform="translate(0.24707 0.859375)"/>
</clipPath>
<clipPath id="clip2_136_2147">
<rect width="28.8" height="28.8" fill="white" transform="translate(0.24707 0.859375)"/>
</clipPath>
</defs>
</svg>
