<svg width="35" height="35" viewBox="0 0 35 35" fill="none" xmlns="http://www.w3.org/2000/svg">
<path fill-rule="evenodd" clip-rule="evenodd" d="M16.9977 3.87707C17.2174 3.78494 17.4532 3.73749 17.6913 3.73749C17.9295 3.73749 18.1653 3.78494 18.385 3.87707C20.742 4.86337 26.0781 6.87756 31.2176 7.219C31.2363 7.21974 31.2544 7.2257 31.2699 7.23621C31.3833 9.12057 31.5633 12.616 31.5633 15.737C31.5633 16.4973 31.5418 17.262 31.5045 18.0073C31.313 21.9295 29.1768 25.4852 25.8105 27.574C24.3149 28.5015 22.7189 29.4038 21.2406 30.0695C19.717 30.7552 18.4954 31.1067 17.6913 31.1067C16.888 31.1067 15.6657 30.7552 14.1421 30.0695C12.6645 29.4038 11.0677 28.5015 9.57288 27.5733C6.20584 25.4852 4.06971 21.9295 3.87747 18.0073C3.83991 17.2511 3.82078 16.4941 3.82008 15.737C3.82008 12.6153 3.99941 9.12057 4.11275 7.23621C4.12825 7.2257 4.14639 7.21974 4.16511 7.219C9.30389 6.87756 14.6406 4.86337 16.9977 3.87707ZM19.542 1.11114C18.9555 0.866303 18.3262 0.740234 17.6906 0.740234C17.055 0.740234 16.4258 0.866303 15.8393 1.11114C13.546 2.07018 8.58873 3.91939 3.96713 4.2264C2.51961 4.32252 1.21555 5.44582 1.11943 7.03537C1.00681 8.92977 0.820312 12.512 0.820312 15.737C0.820312 16.5547 0.843984 17.3674 0.882001 18.1536C1.12373 23.0872 3.81076 27.5288 7.9905 30.1226C9.54418 31.0859 11.265 32.0629 12.9112 32.8038C14.5108 33.5247 16.2194 34.1065 17.6913 34.1065C19.1632 34.1065 20.8719 33.5247 22.4722 32.8038C24.1177 32.0629 25.8385 31.0859 27.3915 30.1226C31.5719 27.5281 34.2589 23.0872 34.5 18.1536C34.5387 17.3674 34.5624 16.554 34.5624 15.737C34.5624 12.512 34.3766 8.93049 34.2625 7.03537C34.1671 5.44582 32.8638 4.32252 31.4155 4.2264C26.7939 3.91939 21.8366 2.07018 19.5427 1.11042M10.0606 15.3081C12.2233 12.7035 14.9914 11.4676 17.6906 11.4676C20.3898 11.4676 23.1579 12.7035 25.3206 15.3081C25.5747 15.6141 25.9399 15.8066 26.3359 15.8433C26.7319 15.88 27.1263 15.7579 27.4324 15.5039C27.7384 15.2498 27.9309 14.8846 27.9676 14.4886C28.0043 14.0925 27.8822 13.6981 27.6282 13.3921C24.9397 10.1542 21.3496 8.46854 17.6906 8.46854C14.0316 8.46854 10.4415 10.1542 7.75379 13.3921C7.62642 13.5434 7.53023 13.7184 7.47077 13.907C7.41131 14.0956 7.38975 14.2941 7.40733 14.491C7.42491 14.688 7.48128 14.8795 7.57321 15.0546C7.66513 15.2297 7.79079 15.3849 7.94293 15.5112C8.09508 15.6375 8.27072 15.7325 8.45973 15.7906C8.64873 15.8488 8.84738 15.869 9.04422 15.85C9.24106 15.8311 9.43221 15.7734 9.60665 15.6802C9.78109 15.5871 9.93539 15.4611 10.0606 15.3081ZM17.6913 16.5791C16.0516 16.5791 14.3437 17.3273 12.9894 18.9584C12.7354 19.2644 12.3703 19.457 11.9743 19.4938C11.5784 19.5306 11.184 19.4086 10.878 19.1546C10.572 18.9006 10.3794 18.5355 10.3426 18.1395C10.3058 17.7436 10.4279 17.3492 10.6818 17.0432C12.5612 14.7787 15.0925 13.5793 17.6913 13.5793C20.2901 13.5793 22.8208 14.7787 24.7008 17.0432C24.9548 17.3492 25.0768 17.7436 25.04 18.1395C25.0032 18.5355 24.8107 18.9006 24.5047 19.1546C24.1987 19.4086 23.8043 19.5306 23.4083 19.4938C23.0124 19.457 22.6472 19.2644 22.3933 18.9584C21.039 17.3273 19.3304 16.5791 17.6913 16.5791ZM14.3716 22.3843C14.3719 21.9485 14.4581 21.517 14.6251 21.1144C14.7922 20.7119 15.0369 20.3462 15.3453 20.0383C15.6537 19.7303 16.0198 19.4862 16.4225 19.3197C16.8253 19.1533 17.257 19.0678 17.6928 19.0682C18.1285 19.0679 18.5601 19.1534 18.9628 19.3199C19.3655 19.4864 19.7314 19.7306 20.0398 20.0385C20.3481 20.3465 20.5928 20.7121 20.7598 21.1146C20.9268 21.5171 21.0129 21.9485 21.0132 22.3843C21.0128 22.8201 20.9266 23.2516 20.7594 23.6541C20.5923 24.0566 20.3475 24.4222 20.039 24.73C19.7305 25.0379 19.3644 25.282 18.9616 25.4484C18.5588 25.6147 18.1272 25.7001 17.6913 25.6997C16.8114 25.7002 15.9673 25.3513 15.3446 24.7295C14.7219 24.1078 14.3724 23.2642 14.3716 22.3843Z" fill="black"/>
</svg>
