<svg width="30" height="23" viewBox="0 0 30 23" fill="none" xmlns="http://www.w3.org/2000/svg">
<g clip-path="url(#clip0_136_2138)">
<g clip-path="url(#clip1_136_2138)">
<g clip-path="url(#clip2_136_2138)">
<path d="M28.2854 18.65C28.0006 20.103 26.791 21.2102 25.2965 21.4178C22.9477 21.7635 19.0331 22.1787 14.6203 22.1787C10.2789 22.1787 6.36434 21.7635 3.94423 21.4178C2.44975 21.2102 1.23937 20.103 0.955256 18.65C0.670499 17.0589 0.385742 14.7062 0.385742 11.8002C0.385742 8.8943 0.670499 6.54166 0.955256 4.95053C1.24001 3.49755 2.44975 2.39031 3.94423 2.18274C6.29299 1.83701 10.2076 1.42188 14.6203 1.42188C19.0331 1.42188 22.8763 1.83701 25.2965 2.18274C26.791 2.39031 28.0013 3.49755 28.2854 4.95053C28.5702 6.54166 28.9263 8.8943 28.9263 11.8002C28.8549 14.7062 28.5702 17.0589 28.2854 18.65Z" fill="url(#paint0_linear_136_2138)"/>
<path d="M20.0731 10.787L12.6551 5.84173C12.2808 5.592 11.8028 5.56865 11.4065 5.78141C11.0101 5.99351 10.7637 6.40411 10.7637 6.85362V16.7442C10.7637 17.1938 11.0101 17.605 11.4065 17.8171C11.5868 17.9138 11.7833 17.9611 11.9799 17.9611C12.216 17.9611 12.4508 17.8924 12.6544 17.7568L20.0724 12.8115C20.4117 12.5851 20.6141 12.2069 20.6141 11.7996C20.6147 11.3916 20.4117 11.0134 20.0731 10.787Z" fill="black"/>
<path d="M12.5036 6.11516L19.5025 10.7815C19.9495 11.1026 20.2504 11.39 20.2504 11.763C20.2504 12.1359 20.1051 12.396 19.7866 12.6282C19.5459 12.8033 12.6223 17.4049 12.6223 17.4049C12.0379 17.7966 11.0889 17.7137 11.0889 16.4325V7.09268C11.0889 5.79214 12.1163 5.857 12.5036 6.11516Z" fill="black"/>
<path d="M11.4131 16.7091V6.89176C11.4131 6.40982 11.9502 6.12182 12.3517 6.38971L19.7151 11.2987C20.0739 11.5374 20.0739 12.0641 19.7151 12.3034L12.3517 17.2124C11.9502 17.479 11.4131 17.1917 11.4131 16.7091Z" fill="white"/>
</g>
</g>
</g>
<defs>
<linearGradient id="paint0_linear_136_2138" x1="5.45558" y1="2.6355" x2="25.8426" y2="23.0225" gradientUnits="userSpaceOnUse">
<stop stop-color="#F44F5A"/>
<stop offset="0.443" stop-color="#EE3D4A"/>
<stop offset="1" stop-color="#E52030"/>
</linearGradient>
<clipPath id="clip0_136_2138">
<rect width="28.8" height="21.78" fill="white" transform="translate(0.256836 0.908203)"/>
</clipPath>
<clipPath id="clip1_136_2138">
<rect width="28.8" height="21.78" fill="white" transform="translate(0.256836 0.908203)"/>
</clipPath>
<clipPath id="clip2_136_2138">
<rect width="28.8" height="21.7946" fill="white" transform="translate(0.256836 0.902344)"/>
</clipPath>
</defs>
</svg>
