<svg width="204" height="50" viewBox="0 0 204 50" fill="none" xmlns="http://www.w3.org/2000/svg">
<path d="M203.644 1.10156L193.966 4.08857L201.392 10.976L203.644 1.10156ZM0.740234 1.10156L0.0904018 1.69066C0.919869 2.60564 1.75122 3.50543 2.58437 4.39018L3.22292 3.78887L3.86147 3.18756C3.03599 2.31094 2.21215 1.4193 1.39007 0.512464L0.740234 1.10156ZM8.23132 8.90639L7.61665 9.53209C9.37467 11.2591 11.1397 12.9218 12.911 14.5218L13.499 13.8709L14.0869 13.22C12.3341 11.6367 10.5868 9.99082 8.84599 8.28069L8.23132 8.90639ZM18.9601 18.5898L18.4016 19.2662C20.2907 20.8259 22.1857 22.3169 24.0857 23.7412L24.6118 23.0394L25.1379 22.3376C23.2601 20.93 21.3866 19.4559 19.5185 17.9134L18.9601 18.5898ZM30.4612 27.204L29.9705 27.931C32.0067 29.3054 34.0474 30.6059 36.0912 31.8349L36.5432 31.0833L36.9952 30.3316C34.9778 29.1185 32.963 27.8344 30.9519 26.477L30.4612 27.204ZM42.8284 34.6334L42.4183 35.4087C44.5866 36.5556 46.7571 37.6251 48.9282 38.6196L49.2935 37.8222L49.6587 37.0248C47.5181 36.0442 45.3775 34.9895 43.2385 33.858L42.8284 34.6334ZM55.9277 40.6294L55.61 41.4469C57.8909 42.3335 60.1707 43.1405 62.4478 43.871L62.7157 43.0358L62.9837 42.2006C60.7401 41.4809 58.4935 40.6857 56.2455 39.8119L55.9277 40.6294ZM69.6374 45.025L69.4212 45.8751C71.7884 46.4773 74.1506 46.9999 76.5058 47.4464L76.6692 46.5846L76.8326 45.7228C74.5125 45.2831 72.1856 44.7683 69.8537 44.175L69.6374 45.025ZM83.7849 47.7068L83.675 48.577C86.0939 48.8823 88.5032 49.1102 90.9007 49.2645L90.9571 48.3892L91.0134 47.5139C88.6512 47.3618 86.2776 47.1374 83.8947 46.8366L83.7849 47.7068ZM98.1582 48.6345L98.1547 49.5116C100.589 49.5213 103.008 49.458 105.41 49.3258L105.362 48.45L105.314 47.5742C102.945 47.7045 100.561 47.767 98.1617 47.7574L98.1582 48.6345ZM112.543 47.8468L112.641 48.7184C115.057 48.4459 117.452 48.1062 119.825 47.704L119.679 46.8392L119.532 45.9744C117.191 46.3713 114.827 46.7065 112.444 46.9753L112.543 47.8468ZM126.749 45.4431L126.942 46.2988C129.313 45.7645 131.657 45.1701 133.973 44.5203L133.737 43.6758L133.5 42.8313C131.212 43.4731 128.897 44.06 126.556 44.5875L126.749 45.4431ZM140.625 41.5546L140.904 42.3861C143.209 41.6128 145.482 40.7868 147.72 39.9135L147.401 39.0964L147.082 38.2793C144.87 39.1426 142.624 39.9589 140.346 40.723L140.625 41.5546ZM154.051 36.3173L154.408 37.1184C156.632 36.1269 158.816 35.0907 160.957 34.0156L160.564 33.2318L160.17 32.448C158.053 33.5112 155.893 34.5358 153.694 35.5161L154.051 36.3173ZM166.927 29.8531L167.356 30.6183C169.485 29.4252 171.565 28.1962 173.591 26.9377L173.128 26.1926L172.666 25.4475C170.662 26.6923 168.605 27.9079 166.499 29.088L166.927 29.8531ZM179.165 22.2513L179.661 22.9746C181.689 21.5836 183.653 20.1666 185.55 18.7311L185.021 18.0317L184.492 17.3322C182.616 18.7513 180.674 20.1524 178.668 21.528L179.165 22.2513ZM190.665 13.543L191.228 14.2158C193.124 12.6304 194.936 11.0322 196.66 9.43081L196.063 8.7882L195.466 8.14558C193.765 9.72582 191.975 11.3038 190.102 12.8701L190.665 13.543Z" fill="black"/>
</svg>
