<svg width="204" height="50" viewBox="0 0 204 50" fill="none" xmlns="http://www.w3.org/2000/svg">
<path d="M203.78 1.10156L194.103 4.08857L201.528 10.976L203.78 1.10156ZM0.876953 1.10156L0.227121 1.69066C1.05659 2.60564 1.88794 3.50543 2.72109 4.39018L3.35964 3.78887L3.99819 3.18756C3.17271 2.31094 2.34887 1.4193 1.52679 0.512464L0.876953 1.10156ZM8.36804 8.90639L7.75337 9.53209C9.51139 11.2591 11.2765 12.9218 13.0478 14.5218L13.6357 13.8709L14.2236 13.22C12.4708 11.6367 10.7235 9.99082 8.98271 8.28069L8.36804 8.90639ZM19.0968 18.5898L18.5383 19.2662C20.4274 20.8259 22.3224 22.3169 24.2224 23.7412L24.7485 23.0394L25.2746 22.3376C23.3968 20.93 21.5234 19.4559 19.6552 17.9134L19.0968 18.5898ZM30.598 27.204L30.1072 27.931C32.1434 29.3054 34.1841 30.6059 36.2279 31.8349L36.6799 31.0833L37.1319 30.3316C35.1146 29.1185 33.0997 27.8344 31.0887 26.477L30.598 27.204ZM42.9651 34.6334L42.555 35.4087C44.7233 36.5556 46.8938 37.6251 49.0649 38.6196L49.4302 37.8222L49.7955 37.0248C47.6548 36.0442 45.5143 34.9895 43.3752 33.858L42.9651 34.6334ZM56.0645 40.6294L55.7467 41.4469C58.0276 42.3335 60.3074 43.1405 62.5845 43.871L62.8524 43.0358L63.1204 42.2006C60.8768 41.4809 58.6302 40.6857 56.3822 39.8119L56.0645 40.6294ZM69.7741 45.025L69.5579 45.8751C71.9251 46.4773 74.2873 46.9999 76.6426 47.4464L76.8059 46.5846L76.9693 45.7228C74.6492 45.2831 72.3223 44.7683 69.9904 44.175L69.7741 45.025ZM83.9216 47.7068L83.8118 48.577C86.2307 48.8823 88.6399 49.1102 91.0374 49.2645L91.0938 48.3892L91.1501 47.5139C88.7879 47.3618 86.4143 47.1374 84.0314 46.8366L83.9216 47.7068ZM98.2949 48.6345L98.2914 49.5116C100.725 49.5213 103.145 49.458 105.547 49.3258L105.498 48.45L105.45 47.5742C103.082 47.7045 100.697 47.767 98.2984 47.7574L98.2949 48.6345ZM112.679 47.8468L112.778 48.7184C115.194 48.4459 117.589 48.1062 119.962 47.704L119.815 46.8392L119.669 45.9744C117.327 46.3713 114.964 46.7065 112.581 46.9753L112.679 47.8468ZM126.886 45.4431L127.079 46.2988C129.45 45.7645 131.794 45.1701 134.11 44.5203L133.873 43.6758L133.636 42.8313C131.349 43.4731 129.034 44.06 126.693 44.5875L126.886 45.4431ZM140.762 41.5546L141.041 42.3861C143.346 41.6128 145.619 40.7868 147.856 39.9135L147.537 39.0964L147.218 38.2793C145.007 39.1426 142.761 39.9589 140.483 40.723L140.762 41.5546ZM154.188 36.3173L154.545 37.1184C156.769 36.1269 158.953 35.0907 161.094 34.0156L160.7 33.2318L160.307 32.448C158.19 33.5112 156.03 34.5358 153.83 35.5161L154.188 36.3173ZM167.064 29.8531L167.493 30.6183C169.622 29.4252 171.702 28.1962 173.728 26.9377L173.265 26.1926L172.802 25.4475C170.798 26.6923 168.741 27.9079 166.635 29.088L167.064 29.8531ZM179.301 22.2513L179.797 22.9746C181.825 21.5836 183.79 20.1666 185.687 18.7311L185.158 18.0317L184.628 17.3322C182.753 18.7513 180.811 20.1524 178.805 21.528L179.301 22.2513ZM190.802 13.543L191.364 14.2158C193.26 12.6304 195.073 11.0322 196.797 9.43081L196.2 8.7882L195.603 8.14558C193.902 9.72582 192.112 11.3038 190.239 12.8701L190.802 13.543Z" fill="black"/>
</svg>
