<svg width="110" height="109" viewBox="0 0 110 109" fill="none" xmlns="http://www.w3.org/2000/svg">
<path d="M27.9012 10.2676C24.5922 10.2676 21.4188 11.5821 19.0791 13.9218C16.7393 16.2616 15.4248 19.435 15.4248 22.744V86.2601C15.4248 89.5691 16.7393 92.7425 19.0791 95.0823C21.4188 97.422 24.5922 98.7365 27.9012 98.7365H59.6593C60.5617 98.7365 61.4272 98.378 62.0653 97.7399C62.7034 97.1018 63.0619 96.2363 63.0619 95.3338C63.0619 94.4314 62.7034 93.5659 62.0653 92.9278C61.4272 92.2897 60.5617 91.9312 59.6593 91.9312H27.9012C24.7708 91.9312 22.2301 89.3905 22.2301 86.2601V22.744C22.2301 19.6135 24.7708 17.0729 27.9012 17.0729H73.2699C76.4003 17.0729 78.941 19.6135 78.941 22.744V47.6967C78.941 48.5992 79.2994 49.4646 79.9376 50.1028C80.5757 50.7409 81.4412 51.0994 82.3436 51.0994C83.246 51.0994 84.1115 50.7409 84.7496 50.1028C85.3878 49.4646 85.7463 48.5992 85.7463 47.6967V22.744C85.7463 19.435 84.4318 16.2616 82.092 13.9218C79.7522 11.5821 76.5788 10.2676 73.2699 10.2676H27.9012Z" fill="url(#paint0_linear_136_8012)"/>
<path d="M32.4378 46.5625C31.5354 46.5625 30.6699 46.921 30.0318 47.5591C29.3936 48.1972 29.0352 49.0627 29.0352 49.9652C29.0352 50.8676 29.3936 51.7331 30.0318 52.3712C30.6699 53.0093 31.5354 53.3678 32.4378 53.3678H34.7062C35.6087 53.3678 36.4742 53.0093 37.1123 52.3712C37.7504 51.7331 38.1089 50.8676 38.1089 49.9652C38.1089 49.0627 37.7504 48.1972 37.1123 47.5591C36.4742 46.921 35.6087 46.5625 34.7062 46.5625H32.4378ZM46.0484 46.5625C45.146 46.5625 44.2805 46.921 43.6424 47.5591C43.0043 48.1972 42.6458 49.0627 42.6458 49.9652C42.6458 50.8676 43.0043 51.7331 43.6424 52.3712C44.2805 53.0093 45.146 53.3678 46.0484 53.3678H68.7328C69.6352 53.3678 70.5007 53.0093 71.1388 52.3712C71.7769 51.7331 72.1354 50.8676 72.1354 49.9652C72.1354 49.0627 71.7769 48.1972 71.1388 47.5591C70.5007 46.921 69.6352 46.5625 68.7328 46.5625H46.0484ZM32.4378 60.1731C31.5354 60.1731 30.6699 60.5316 30.0318 61.1697C29.3936 61.8078 29.0352 62.6733 29.0352 63.5758C29.0352 64.4782 29.3936 65.3437 30.0318 65.9818C30.6699 66.6199 31.5354 66.9784 32.4378 66.9784H34.7062C35.6087 66.9784 36.4742 66.6199 37.1123 65.9818C37.7504 65.3437 38.1089 64.4782 38.1089 63.5758C38.1089 62.6733 37.7504 61.8078 37.1123 61.1697C36.4742 60.5316 35.6087 60.1731 34.7062 60.1731H32.4378ZM46.0484 60.1731C45.146 60.1731 44.2805 60.5316 43.6424 61.1697C43.0043 61.8078 42.6458 62.6733 42.6458 63.5758C42.6458 64.4782 43.0043 65.3437 43.6424 65.9818C44.2805 66.6199 45.146 66.9784 46.0484 66.9784H61.9274C62.8299 66.9784 63.6954 66.6199 64.3335 65.9818C64.9716 65.3437 65.3301 64.4782 65.3301 63.5758C65.3301 62.6733 64.9716 61.8078 64.3335 61.1697C63.6954 60.5316 62.8299 60.1731 61.9274 60.1731H46.0484ZM32.4378 73.7837C31.5354 73.7837 30.6699 74.1422 30.0318 74.7803C29.3936 75.4184 29.0352 76.2839 29.0352 77.1864C29.0352 78.0888 29.3936 78.9543 30.0318 79.5924C30.6699 80.2305 31.5354 80.589 32.4378 80.589H34.7062C35.6087 80.589 36.4742 80.2305 37.1123 79.5924C37.7504 78.9543 38.1089 78.0888 38.1089 77.1864C38.1089 76.2839 37.7504 75.4184 37.1123 74.7803C36.4742 74.1422 35.6087 73.7837 34.7062 73.7837H32.4378ZM46.0484 73.7837C45.146 73.7837 44.2805 74.1422 43.6424 74.7803C43.0043 75.4184 42.6458 76.2839 42.6458 77.1864C42.6458 78.0888 43.0043 78.9543 43.6424 79.5924C44.2805 80.2305 45.146 80.589 46.0484 80.589H55.1221C56.0246 80.589 56.8901 80.2305 57.5282 79.5924C58.1663 78.9543 58.5248 78.0888 58.5248 77.1864C58.5248 76.2839 58.1663 75.4184 57.5282 74.7803C56.8901 74.1422 56.0246 73.7837 55.1221 73.7837H46.0484Z" fill="url(#paint1_linear_136_8012)"/>
<path opacity="0.5" d="M28.2462 25.5424C27.9014 26.3772 27.9014 27.4343 27.9014 29.5485C27.9014 31.6626 27.9014 32.7197 28.2462 33.5545C28.7076 34.664 29.5903 35.545 30.7006 36.0044C31.5354 36.3538 32.5925 36.3538 34.7067 36.3538H66.4647C68.5789 36.3538 69.636 36.3538 70.4708 36.009C71.5802 35.5475 72.4613 34.6648 72.9207 33.5545C73.27 32.7197 73.27 31.6626 73.27 29.5485C73.27 27.4343 73.27 26.3772 72.9252 25.5424C72.4638 24.433 71.5811 23.5519 70.4708 23.0925C69.636 22.7432 68.5789 22.7432 66.4647 22.7432H34.7067C32.5925 22.7432 31.5354 22.7432 30.7006 23.088C29.5912 23.5494 28.7056 24.4321 28.2462 25.5424ZM85.7464 63.575C85.7464 62.6725 85.3879 61.8071 84.7498 61.1689C84.1117 60.5308 83.2462 60.1723 82.3438 60.1723C81.4413 60.1723 80.5759 60.5308 79.9377 61.1689C79.2996 61.8071 78.9411 62.6725 78.9411 63.575V65.4669H78.5464C74.2046 65.4669 69.8674 68.6427 69.8674 73.479C69.8674 75.4933 70.4118 77.3444 71.7774 78.8007C73.0387 80.1391 74.6493 80.7561 75.8969 81.1281L86.867 84.3085C87.2844 84.431 87.5612 84.5444 87.7427 84.6351C87.8093 84.6691 87.873 84.7086 87.9332 84.7531L87.9423 84.7712C87.9985 84.9858 88.023 85.2074 88.0149 85.4291C88.0149 85.5969 87.9423 85.851 87.6338 86.1278C87.2118 86.4712 86.6804 86.6515 86.1366 86.6359H79.3086C77.4077 86.6359 76.6727 85.3928 76.6727 84.7485C76.6727 83.8461 76.3142 82.9806 75.6761 82.3425C75.038 81.7044 74.1725 81.3459 73.27 81.3459C72.3676 81.3459 71.5021 81.7044 70.864 82.3425C70.2259 82.9806 69.8674 83.8461 69.8674 84.7485C69.8674 89.8298 74.2818 93.2642 78.9411 93.4366V95.3331C78.9411 96.2355 79.2996 97.101 79.9377 97.7391C80.5759 98.3772 81.4413 98.7357 82.3438 98.7357C83.2462 98.7357 84.1117 98.3772 84.7498 97.7391C85.3879 97.101 85.7464 96.2355 85.7464 95.3331V93.4412H86.1411C90.4829 93.4412 94.8202 90.2654 94.8202 85.4291C94.8202 83.4147 94.2757 81.5637 92.9101 80.1073C91.6489 78.7689 90.0383 78.1519 88.7907 77.7799L77.8205 74.5996C77.5182 74.5211 77.2248 74.4116 76.9449 74.2729C76.8783 74.2389 76.8145 74.1994 76.7544 74.155L76.7453 74.1368C76.6891 73.9222 76.6646 73.7006 76.6727 73.479C76.6727 73.3111 76.7453 73.057 77.0538 72.7803C77.4758 72.4368 78.0071 72.2565 78.551 72.2722H85.3789C87.2799 72.2722 88.0149 73.5153 88.0149 74.1595C88.0149 75.0619 88.3734 75.9274 89.0115 76.5655C89.6496 77.2037 90.5151 77.5621 91.4175 77.5621C92.32 77.5621 93.1854 77.2037 93.8236 76.5655C94.4617 75.9274 94.8202 75.0619 94.8202 74.1595C94.8202 69.0782 90.4058 65.6438 85.7464 65.4714V63.575Z" fill="url(#paint2_linear_136_8012)"/>
<defs>
<linearGradient id="paint0_linear_136_8012" x1="50.5855" y1="10.2676" x2="50.5855" y2="98.7365" gradientUnits="userSpaceOnUse">
<stop stop-color="#8606D0"/>
<stop offset="1" stop-color="#6005A2"/>
</linearGradient>
<linearGradient id="paint1_linear_136_8012" x1="50.5853" y1="46.5625" x2="50.5853" y2="80.589" gradientUnits="userSpaceOnUse">
<stop stop-color="#8606D0"/>
<stop offset="1" stop-color="#6005A2"/>
</linearGradient>
<linearGradient id="paint2_linear_136_8012" x1="61.3608" y1="22.7432" x2="61.3608" y2="98.7357" gradientUnits="userSpaceOnUse">
<stop stop-color="#8606D0"/>
<stop offset="1" stop-color="#6005A2"/>
</linearGradient>
</defs>
</svg>
