<svg width="51" height="51" viewBox="0 0 51 51" fill="none" xmlns="http://www.w3.org/2000/svg">
<path d="M13.9697 5.27835C17.5612 3.20003 21.6386 2.10891 25.7881 2.11575C38.8427 2.11575 49.4248 12.6979 49.4248 25.7525C49.4248 38.807 38.8427 49.3892 25.7881 49.3892C12.7335 49.3892 2.15137 38.807 2.15137 25.7525C2.15137 21.4482 3.30248 17.4087 5.31396 13.9341" stroke="url(#paint0_linear_136_7989)" stroke-width="2.72019" stroke-linecap="round"/>
<path d="M32.4726 42.466C31.5956 44.6618 30.5533 46.4015 29.4069 47.5904C28.2581 48.777 27.029 49.3892 25.7881 49.3892C24.5472 49.3892 23.3181 48.777 22.1717 47.5904C21.0229 46.4015 19.9805 44.6595 19.1036 42.466C18.2243 40.2701 17.5271 37.6677 17.052 34.7982C16.5672 31.8075 16.3269 28.7822 16.3334 25.7524C16.3334 22.6489 16.5769 19.5738 17.052 16.7067C17.5271 13.8395 18.2243 11.2348 19.1036 9.03892C19.9805 6.84307 21.0229 5.1034 22.1693 3.91448C23.3181 2.73028 24.5472 2.11572 25.7881 2.11572C27.029 2.11572 28.2581 2.72791 29.4045 3.91448C30.5533 5.1034 31.5956 6.84543 32.4726 9.03892C33.3518 11.2348 34.0491 13.8372 34.5219 16.7067C34.9993 19.5738 35.2428 22.6489 35.2428 25.7524C35.2428 28.8559 34.997 31.9311 34.5219 34.7982M2.15137 25.7524H21.0607M49.4248 25.7524H30.5154" stroke="url(#paint1_linear_136_7989)" stroke-width="2.72019" stroke-linecap="round"/>
<defs>
<linearGradient id="paint0_linear_136_7989" x1="25.7881" y1="2.11572" x2="25.7881" y2="49.3892" gradientUnits="userSpaceOnUse">
<stop stop-color="#8606D0"/>
<stop offset="1" stop-color="#6005A2"/>
</linearGradient>
<linearGradient id="paint1_linear_136_7989" x1="25.7881" y1="2.11572" x2="25.7881" y2="49.3892" gradientUnits="userSpaceOnUse">
<stop stop-color="#8606D0"/>
<stop offset="1" stop-color="#6005A2"/>
</linearGradient>
</defs>
</svg>
