<svg width="853" height="842" viewBox="0 0 853 842" fill="none" xmlns="http://www.w3.org/2000/svg">
<g style="mix-blend-mode:plus-darker" opacity="0.2">
<path d="M10.5648 841.045L-0.422495 839.664L-0.145959 837.464L10.8414 838.845L10.5648 841.045ZM-11.4168 838.283L-22.4041 836.902L-22.1276 834.701L-11.1403 836.082L-11.4168 838.283ZM-33.3984 835.52L-44.3857 834.139L-44.1092 831.939L-33.1219 833.32L-33.3984 835.52ZM-55.3801 832.757L-66.3674 831.376L-66.0909 829.176L-55.1036 830.557L-55.3801 832.757ZM-77.3547 829.995L-88.342 828.615L-88.0655 826.414L-77.0782 827.795L-77.3547 829.995ZM-99.3363 827.233L-110.324 825.852L-110.047 823.652L-99.0598 825.032L-99.3363 827.233ZM-121.318 824.47L-132.305 823.089L-132.029 820.889L-121.041 822.27L-121.318 824.47ZM-143.3 821.707L-154.287 820.326L-154.01 818.126L-143.023 819.507L-143.3 821.707ZM-165.274 818.946L-176.262 817.565L-175.985 815.364L-164.998 816.745L-165.274 818.946ZM-187.256 816.183L-198.243 814.802L-197.967 812.602L-186.979 813.983L-187.256 816.183ZM-209.237 813.42L-220.225 812.039L-219.948 809.839L-208.961 811.22L-209.237 813.42ZM-231.219 810.657L-242.206 809.277L-241.93 807.076L-230.943 808.457L-231.219 810.657ZM-253.194 807.896L-264.181 806.515L-263.905 804.314L-252.917 805.695L-253.194 807.896ZM-275.175 805.133L-286.163 803.752L-285.886 801.552L-274.899 802.933L-275.175 805.133ZM-297.157 802.37L-308.144 800.989L-307.868 798.789L-296.88 800.17L-297.157 802.37ZM-319.139 799.608L-330.126 798.227L-329.849 796.026L-318.862 797.407L-319.139 799.608ZM-341.113 796.846L-352.101 795.465L-351.824 793.265L-340.837 794.645L-341.113 796.846ZM-363.095 794.083L-374.082 792.702L-373.806 790.502L-362.818 791.883L-363.095 794.083ZM-385.077 791.32L-396.064 789.939L-395.787 787.739L-384.8 789.12L-385.077 791.32ZM-407.058 788.558L-418.046 787.177L-417.769 784.976L-406.782 786.357L-407.058 788.558ZM21.7815 839.021L21.2057 836.884C24.7821 835.921 28.3358 834.857 31.7682 833.741L32.454 835.85C28.984 836.982 25.3945 838.049 21.7806 839.028L21.7815 839.021ZM-422.404 780.647L-424.605 780.371L-423.224 769.384L-421.024 769.66L-422.404 780.647ZM42.9505 832.103L42.146 830.036C45.6222 828.685 49.0321 827.241 52.2857 825.741L53.2178 827.753C49.9257 829.276 46.4713 830.736 42.9505 832.103ZM63.1703 822.745L62.102 820.802C65.3715 819.006 68.5408 817.106 71.5118 815.145L72.726 817C69.7026 818.983 66.4862 820.92 63.1634 822.745L63.1703 822.745ZM-419.643 758.673L-421.843 758.396L-420.462 747.409L-418.262 747.686L-419.643 758.673ZM81.7794 810.454L80.4 808.726C83.3101 806.403 86.0719 803.962 88.5998 801.463L90.1539 803.042C87.5693 805.597 84.7516 808.088 81.7794 810.454ZM-416.88 736.691L-419.08 736.415L-417.699 725.427L-415.499 725.704L-416.88 736.691ZM97.6488 794.724L95.9138 793.343C98.2053 790.466 100.302 787.445 102.135 784.376L104.036 785.509C102.15 788.663 100.001 791.763 97.6497 794.717L97.6488 794.724ZM-414.117 714.71L-416.318 714.433L-414.937 703.446L-412.736 703.722L-414.117 714.71ZM109.104 775.502L107.062 774.643C107.841 772.789 108.551 770.871 109.182 768.956C109.68 767.422 110.138 765.862 110.538 764.316L112.682 764.869C112.269 766.464 111.798 768.072 111.28 769.646C110.635 771.622 109.897 773.594 109.096 775.509L109.104 775.502ZM-411.355 692.728L-413.555 692.451L-412.174 681.464L-409.974 681.741L-411.355 692.728ZM112.525 753.589C112.929 750.036 113.099 746.368 113.03 742.684L115.242 742.642C115.314 746.419 115.137 750.193 114.722 753.837L112.518 753.588L112.525 753.589ZM-408.593 670.753L-410.793 670.477L-409.412 659.489L-407.212 659.766L-408.593 670.753ZM112.165 731.783C111.678 728.266 110.983 724.646 110.092 721.014L112.244 720.483C113.148 724.187 113.862 727.881 114.361 731.47L112.166 731.776L112.165 731.783ZM-405.83 648.772L-408.03 648.495L-406.649 637.508L-404.449 637.784L-405.83 648.772ZM107.017 710.474C105.89 707.133 104.579 703.676 103.124 700.186L105.168 699.33C106.647 702.864 107.972 706.373 109.115 709.759L107.018 710.467L107.017 710.474ZM98.5791 690.164C97.0331 686.997 95.3265 683.696 93.502 680.373L95.4447 679.312C97.2857 682.672 99.0107 685.997 100.573 689.202L98.5853 690.172L98.5791 690.164ZM-403.067 626.79L-405.268 626.514L-403.887 615.526L-401.686 615.803L-403.067 626.79ZM88.0082 670.793C86.2079 667.785 84.2567 664.624 82.1929 661.398L84.0597 660.207C86.1279 663.454 88.0983 666.632 89.9038 669.654L88.0012 670.792L88.0082 670.793ZM-400.305 604.808L-402.505 604.532L-401.124 593.545L-398.924 593.821L-400.305 604.808ZM76.147 652.145C74.0805 649.055 72.0009 646.012 69.9238 643.005L71.7488 641.752C73.8258 644.758 75.9107 647.816 77.9903 650.915L76.147 652.145ZM-397.542 582.827L-399.742 582.55L-398.361 571.563L-396.161 571.84L-397.542 582.827ZM63.6675 633.846C61.6245 630.794 59.5876 627.693 57.591 624.554L59.4578 623.363C61.4492 626.486 63.4738 629.572 65.5037 632.615L63.6605 633.845L63.6675 633.846ZM-394.78 560.852L-396.98 560.576L-395.599 549.588L-393.399 549.865L-394.78 560.852ZM51.7566 615.086C49.8011 611.79 47.946 608.541 46.2524 605.419L48.2012 604.366C49.8844 607.458 51.7203 610.69 53.6583 613.956L51.7566 615.086ZM41.1666 595.528C39.5054 592.091 37.97 588.669 36.6039 585.369L38.6539 584.526C40.0034 587.79 41.5231 591.166 43.1677 594.566L41.1735 595.529L41.1666 595.528ZM-392.017 538.87L-394.218 538.594L-392.837 527.607L-390.637 527.883L-392.017 538.87ZM32.6869 574.929C31.4747 571.307 30.431 567.699 29.5864 564.201L31.7374 563.684C32.5681 567.123 33.5978 570.673 34.783 574.227L32.6799 574.928L32.6869 574.929ZM-389.255 516.889L-391.455 516.612L-390.074 505.625L-387.874 505.902L-389.255 516.889ZM27.4902 553.217C26.9706 549.448 26.6762 545.693 26.607 542.066L28.8189 542.024C28.8837 545.573 29.1755 549.235 29.6778 552.917L27.4832 553.216L27.4902 553.217ZM-386.492 494.907L-388.692 494.631L-387.311 483.643L-385.111 483.92L-386.492 494.907ZM27.142 530.865L27.2456 530.041C27.6792 526.591 28.3382 523.154 29.2171 519.831L31.3604 520.391C30.5069 523.625 29.8672 526.965 29.4467 530.311L29.3466 531.107L27.1507 530.852L27.142 530.865ZM-383.73 472.933L-385.93 472.656L-384.55 461.669L-382.349 461.945L-383.73 472.933ZM34.8846 510.077L32.8506 509.211C34.3085 505.797 36.0493 502.447 38.0196 499.247L39.9032 500.406C37.9871 503.514 36.3013 506.764 34.8846 510.077ZM-380.968 450.951L-383.168 450.674L-381.787 439.687L-379.587 439.964L-380.968 450.951ZM46.2659 491.556L44.5633 490.143C46.8975 487.321 49.491 484.582 52.2642 481.993L53.7772 483.617C51.0686 486.143 48.5477 488.813 46.2729 491.557L46.2659 491.556ZM-378.205 428.969L-380.405 428.693L-379.024 417.706L-376.824 417.982L-378.205 428.969ZM62.1978 476.629L60.8822 474.846C63.815 472.681 66.9572 470.6 70.2155 468.668L71.3459 470.57C68.1488 472.467 65.0764 474.5 62.2056 476.623L62.1978 476.629ZM81.0339 465.409L80.0792 463.408C83.3774 461.836 86.8336 460.362 90.3569 459.031L91.1397 461.102C87.6748 462.419 84.2719 463.864 81.0331 465.416L81.0339 465.409ZM-375.442 406.988L-377.642 406.711L-376.261 395.724L-374.061 396L-375.442 406.988ZM101.564 457.594L100.937 455.465C104.473 454.427 108.11 453.493 111.743 452.701L112.216 454.868C108.634 455.645 105.049 456.564 101.564 457.594ZM123.034 452.907L122.714 450.709C123.436 450.609 124.159 450.508 124.873 450.413C127.744 450.036 130.737 449.71 133.772 449.439L133.971 451.642C130.964 451.91 128 452.239 125.158 452.606C124.451 452.702 123.736 452.796 123.028 452.899L123.034 452.907ZM144.976 450.903L144.871 448.691C148.432 448.528 152.065 448.417 155.98 448.37L156.007 450.587C152.119 450.637 148.508 450.744 144.975 450.91L144.976 450.903ZM-372.68 385.013L-374.881 384.737L-373.5 373.749L-371.299 374.026L-372.68 385.013ZM167.062 450.579L167.092 448.362C170.79 448.408 174.485 448.482 178.183 448.578L178.125 450.791C174.433 450.696 170.747 450.616 167.063 450.572L167.062 450.579ZM189.188 451.124L189.26 448.913L190.575 448.95C193.826 449.054 197.076 449.164 200.328 449.254L200.263 451.466C197.01 451.377 193.753 451.265 190.502 451.162L189.188 451.117L189.188 451.124ZM211.347 451.738L211.384 449.522C215.073 449.581 218.752 449.611 222.436 449.599L222.449 451.814C218.75 451.831 215.05 451.799 211.347 451.738ZM233.551 451.599L233.475 449.382C236.162 449.287 238.853 449.157 241.543 448.984C242.523 448.923 243.503 448.855 244.486 448.772L244.662 450.98C243.666 451.061 242.678 451.128 241.684 451.195C238.973 451.365 236.267 451.5 233.552 451.592L233.551 451.599ZM255.742 449.818L255.45 447.625C259.109 447.134 262.768 446.536 266.325 445.841L266.747 448.015C263.147 448.712 259.444 449.326 255.742 449.818ZM277.617 445.529L277.056 443.387C280.651 442.441 284.191 441.374 287.586 440.219L288.302 442.317C284.862 443.488 281.271 444.569 277.624 445.53L277.617 445.529ZM-369.918 363.031L-372.118 362.755L-370.737 351.768L-368.537 352.044L-369.918 363.031ZM298.704 438.303L297.824 436.269C301.231 434.796 304.549 433.177 307.68 431.47L308.741 433.412C305.549 435.154 302.171 436.801 298.704 438.303ZM318.274 427.565L317.021 425.74C320.065 423.646 322.973 421.394 325.66 419.042L327.118 420.709C324.361 423.115 321.382 425.423 318.274 427.565ZM-367.155 341.05L-369.355 340.773L-367.974 329.786L-365.774 330.063L-367.155 341.05ZM335.076 412.832L333.416 411.361C335.837 408.635 338.089 405.733 340.106 402.729L341.945 403.961C339.876 407.043 337.564 410.023 335.076 412.825L335.076 412.832ZM-364.393 319.075L-366.593 318.799L-365.212 307.811L-363.012 308.088L-364.393 319.075ZM347.563 394.265L345.579 393.278C347.145 390.133 348.559 386.841 349.901 383.221L351.976 383.993C350.603 387.687 349.159 391.046 347.555 394.265L347.563 394.265ZM-361.63 297.094L-363.831 296.817L-362.45 285.83L-360.249 286.106L-361.63 297.094ZM355.445 373.381L353.316 372.766C354.234 369.582 355.148 366.093 356.104 362.098L358.259 362.617C357.292 366.646 356.373 370.17 355.444 373.388L355.445 373.381ZM-358.868 275.112L-361.068 274.835L-359.687 263.848L-357.487 264.125L-358.868 275.112ZM360.72 351.793L358.559 351.316L358.957 349.5C359.618 346.497 360.281 343.486 360.962 340.493L363.121 340.984C362.44 343.971 361.779 346.974 361.119 349.971L360.72 351.786L360.72 351.793ZM-356.105 253.13L-358.305 252.854L-356.924 241.866L-354.724 242.143L-356.105 253.13ZM365.752 330.267L363.611 329.693C364.647 325.793 365.696 322.299 366.797 319.018L368.894 319.721C367.806 322.962 366.776 326.409 365.746 330.26L365.752 330.267ZM-353.343 231.156L-355.543 230.879L-354.163 219.892L-351.962 220.168L-353.343 231.156ZM372.854 309.498L370.831 308.598C372.228 305.446 373.763 302.432 375.385 299.634L375.971 298.644L377.871 299.784L377.302 300.748C375.718 303.479 374.22 306.42 372.854 309.498ZM-350.58 209.174L-352.781 208.897L-351.4 197.91L-349.2 198.187L-350.58 209.174ZM384.072 290.807L382.336 289.432C384.63 286.535 387.16 283.738 389.845 281.117L391.391 282.702C388.772 285.253 386.308 287.98 384.072 290.807ZM-347.818 187.192L-350.018 186.916L-348.637 175.929L-346.437 176.205L-347.818 187.192ZM399.666 275.575L398.319 273.816C401.231 271.593 404.349 269.48 407.587 267.538L408.724 269.441C405.555 271.341 402.507 273.406 399.658 275.581L399.666 275.575ZM418.412 264.28L417.465 262.273C420.769 260.716 424.243 259.272 427.789 257.987L428.549 260.069C425.062 261.334 421.655 262.757 418.412 264.28ZM660.838 291.705C658.771 291.445 656.707 291.157 654.646 290.841L654.978 288.655C658.606 289.203 662.25 289.675 665.913 290.058L665.678 292.263C664.06 292.095 662.445 291.906 660.831 291.704L660.838 291.705ZM-345.055 165.211L-347.255 164.934L-345.874 153.947L-343.674 154.223L-345.055 165.211ZM676.774 293.175L676.903 290.964C680.558 291.182 684.267 291.307 687.923 291.348L687.9 293.566C684.209 293.521 680.465 293.391 676.781 293.176L676.774 293.175ZM643.69 288.932C640.186 288.243 636.532 287.458 632.822 286.601L633.32 284.443C637.002 285.296 640.629 286.078 644.112 286.757L643.683 288.931L643.69 288.932ZM622.046 283.934C618.466 283.002 614.9 282.021 611.338 281.006L611.946 278.876C615.488 279.882 619.048 280.861 622.606 281.791L622.046 283.934ZM699.029 293.425L698.946 291.208C702.632 291.068 706.328 290.844 709.944 290.526L710.135 292.735C706.483 293.056 702.743 293.282 699.022 293.424L699.029 293.425ZM600.689 277.894C597.154 276.832 593.615 275.749 590.084 274.659L590.74 272.542C594.264 273.631 597.79 274.713 601.325 275.767L600.69 277.887L600.689 277.894ZM439.027 256.746L438.445 254.608C441.964 253.645 445.619 252.792 449.32 252.079L449.742 254.254C446.099 254.96 442.495 255.798 439.027 256.746ZM721.197 291.486L720.891 289.29C724.538 288.784 728.191 288.171 731.755 287.477L732.184 289.652C728.583 290.356 724.888 290.97 721.204 291.487L721.197 291.486ZM579.505 271.379C575.982 270.283 572.458 269.195 568.925 268.112L569.575 265.994C573.108 267.07 576.638 268.166 580.162 269.262L579.505 271.379ZM558.326 264.942C554.789 263.902 551.24 262.895 547.687 261.916L548.275 259.784C551.841 260.764 555.396 261.778 558.948 262.821L558.325 264.949L558.326 264.942ZM460.608 252.54L460.338 250.342C463.976 249.898 467.715 249.566 471.445 249.354L471.572 251.563C467.885 251.773 464.197 252.097 460.608 252.54ZM743.042 287.207L742.496 285.059C746.073 284.147 749.629 283.118 753.074 282.018L753.753 284.126C750.271 285.242 746.664 286.279 743.05 287.201L743.042 287.207ZM536.999 259.119C533.318 258.202 529.698 257.364 526.245 256.617L526.716 254.449C530.191 255.198 533.837 256.046 537.539 256.966L537.006 259.119L536.999 259.119ZM482.575 251.299L482.591 249.081C486.284 249.105 490.027 249.249 493.728 249.494L493.578 251.703C489.927 251.457 486.226 251.318 482.575 251.292L482.575 251.299ZM515.423 254.484C512.181 253.913 508.946 253.4 505.8 252.97L504.529 252.81L504.807 250.603L506.099 250.765C509.271 251.213 512.54 251.731 515.803 252.304L515.416 254.483L515.423 254.484ZM-342.292 143.229L-344.493 142.953L-343.112 131.965L-340.911 132.242L-342.292 143.229ZM764.254 280.401L763.448 278.341C766.882 276.992 770.279 275.531 773.551 273.999L774.491 276.004C771.181 277.56 767.731 279.043 764.253 280.408L764.254 280.401ZM784.405 270.907L783.321 268.976C786.526 267.186 789.684 265.263 792.716 263.267L793.932 265.115C790.86 267.142 787.657 269.088 784.399 270.906L784.405 270.907ZM-339.531 121.255L-341.731 120.978L-340.35 109.991L-338.15 110.267L-339.531 121.255ZM803.013 258.629L801.658 256.877C804.551 254.636 807.389 252.261 810.08 249.818L811.57 251.46C808.838 253.941 805.96 256.353 803.02 258.63L803.013 258.629ZM-336.768 99.2729L-338.968 98.9964L-337.587 88.009L-335.387 88.2856L-336.768 99.2729ZM819.506 243.581L817.871 242.084C820.312 239.425 822.67 236.586 824.89 233.658L826.652 234.993C824.389 237.979 821.983 240.87 819.499 243.58L819.506 243.581ZM832.994 225.8L831.12 224.621C833.046 221.549 834.869 218.337 836.535 215.07L838.509 216.077C836.807 219.397 834.956 222.662 832.995 225.793L832.994 225.8ZM-334.005 77.2913L-336.205 77.0147L-334.825 66.0274L-332.624 66.304L-334.005 77.2913ZM843.175 205.935L841.123 205.096C842.505 201.722 843.764 198.254 844.854 194.773L846.971 195.436C845.858 198.979 844.578 202.507 843.168 205.935L843.175 205.935ZM-331.243 55.3166L-333.444 55.0401L-332.063 44.0528L-329.862 44.3293L-331.243 55.3166ZM849.88 184.655L847.72 184.171C848.524 180.596 849.18 176.954 849.666 173.368L851.864 173.666C851.369 177.321 850.698 181.019 849.88 184.655ZM-328.481 33.335L-330.681 33.0585L-329.3 22.0712L-327.1 22.3477L-328.481 33.335ZM850.664 162.439C850.829 158.756 850.831 155.067 850.659 151.469L852.872 151.364C853.043 155.025 853.046 158.786 852.872 162.539L850.657 162.438L850.664 162.439ZM-325.718 11.3533L-327.918 11.0768L-326.537 0.0895041L-324.337 0.366037L-325.718 11.3533ZM849.611 140.56C849.075 136.916 848.351 133.306 847.456 129.816L849.604 129.263C850.512 132.825 851.254 136.516 851.802 140.232L849.611 140.553L849.611 140.56ZM844.17 119.377C842.87 115.943 841.37 112.583 839.707 109.387L841.673 108.364C843.369 111.635 844.91 115.071 846.242 118.588L844.171 119.37L844.17 119.377ZM834.087 100.017C832.03 97.02 829.762 94.1238 827.35 91.4083L829.004 89.9346C831.478 92.7218 833.801 95.6887 835.912 98.7638L834.087 100.017Z" fill="#202020"/>
</g>
</svg>
