<svg width="684" height="1075" viewBox="0 0 684 1075" fill="none" xmlns="http://www.w3.org/2000/svg">
<g style="mix-blend-mode:plus-darker" opacity="0.2">
<path d="M572.855 981.94L583.671 984.317L584.147 982.152L573.331 979.774L572.855 981.94ZM594.493 986.697L605.308 989.075L605.785 986.909L594.969 984.531L594.493 986.697ZM616.131 991.454L626.946 993.832L627.422 991.666L616.607 989.288L616.131 991.454ZM637.768 996.212L648.584 998.59L649.06 996.424L638.245 994.046L637.768 996.212ZM659.399 1000.97L670.215 1003.35L670.691 1001.18L659.876 998.802L659.399 1000.97ZM681.037 1005.72L691.852 1008.1L692.329 1005.94L681.513 1003.56L681.037 1005.72ZM702.675 1010.48L713.49 1012.86L713.966 1010.69L703.151 1008.32L702.675 1010.48ZM724.313 1015.24L735.128 1017.62L735.604 1015.45L724.789 1013.07L724.313 1015.24ZM745.943 1020L756.759 1022.37L757.235 1020.21L746.42 1017.83L745.943 1020ZM767.581 1024.75L778.397 1027.13L778.873 1024.97L768.057 1022.59L767.581 1024.75ZM789.219 1029.51L800.034 1031.89L800.51 1029.72L789.695 1027.34L789.219 1029.51ZM810.857 1034.27L821.672 1036.65L822.148 1034.48L811.333 1032.1L810.857 1034.27ZM832.487 1039.02L843.303 1041.4L843.779 1039.24L832.964 1036.86L832.487 1039.02ZM854.125 1043.78L864.941 1046.16L865.417 1043.99L854.601 1041.62L854.125 1043.78ZM875.763 1048.54L886.578 1050.92L887.055 1048.75L876.239 1046.37L875.763 1048.54ZM897.401 1053.3L908.216 1055.67L908.692 1053.51L897.877 1051.13L897.401 1053.3ZM919.032 1058.05L929.847 1060.43L930.323 1058.26L919.508 1055.89L919.032 1058.05ZM940.669 1062.81L951.485 1065.19L951.961 1063.02L941.145 1060.64L940.669 1062.81ZM962.307 1067.57L973.122 1069.94L973.599 1067.78L962.783 1065.4L962.307 1067.57ZM983.945 1072.32L994.76 1074.7L995.236 1072.54L984.421 1070.16L983.945 1072.32ZM562.964 976.276L564.222 974.455C561.174 972.351 558.182 970.157 555.322 967.957L553.969 969.714C556.86 971.943 559.885 974.15 562.962 976.283L562.964 976.276ZM1001.05 1070.01L1003.22 1070.49L1005.6 1059.67L1003.43 1059.19L1001.05 1070.01ZM545.334 962.669L546.784 960.991C543.961 958.554 541.231 956.051 538.668 953.548L537.116 955.132C539.708 957.669 542.474 960.202 545.334 962.669ZM529.414 947.081L531.072 945.607C528.592 942.82 526.243 939.968 524.1 937.126L522.334 938.467C524.519 941.348 526.901 944.251 529.421 947.082L529.414 947.081ZM1005.81 1048.38L1007.98 1048.85L1010.35 1038.04L1008.19 1037.56L1005.81 1048.38ZM515.996 929.268L517.874 928.102C515.909 924.938 514.125 921.713 512.58 918.512L510.586 919.479C512.166 922.753 513.987 926.044 515.996 929.268ZM1010.57 1026.74L1012.73 1027.22L1015.11 1016.4L1012.95 1015.93L1010.57 1026.74ZM506.309 909.132L508.407 908.411C507.211 904.934 506.247 901.384 505.547 897.879L503.376 898.31C504.098 901.914 505.085 905.555 506.311 909.125L506.309 909.132ZM1015.32 1005.1L1017.49 1005.58L1019.87 994.764L1017.7 994.287L1015.32 1005.1ZM501.952 887.184L504.164 887.058C504.05 885.051 504.024 883.005 504.071 880.99C504.115 879.378 504.205 877.754 504.346 876.163L502.14 875.967C501.996 877.607 501.902 879.281 501.862 880.937C501.809 883.015 501.843 885.121 501.957 887.193L501.952 887.184ZM1020.08 983.465L1022.25 983.941L1024.63 973.126L1022.46 972.65L1020.08 983.465ZM506.066 865.391C506.875 861.907 507.943 858.394 509.242 854.945L507.172 854.166C505.839 857.7 504.742 861.315 503.913 864.888L506.073 865.392L506.066 865.391ZM1024.84 961.834L1027 962.31L1029.38 951.495L1027.22 951.019L1024.84 961.834ZM513.707 844.964C515.344 841.813 517.211 838.634 519.267 835.511L517.416 834.289C515.324 837.477 513.415 840.719 511.742 843.933L513.709 844.957L513.707 844.964ZM1029.6 940.196L1031.76 940.673L1034.14 929.857L1031.97 929.381L1029.6 940.196ZM525.693 826.609C527.874 823.838 530.267 821.019 532.807 818.219L531.167 816.727C528.59 819.562 526.166 822.424 523.956 825.232L525.695 826.602L525.693 826.609ZM540.445 810.297C542.962 807.83 545.676 805.291 548.507 802.771L547.032 801.121C544.172 803.671 541.434 806.226 538.888 808.722L540.436 810.302L540.445 810.297ZM1034.35 918.559L1036.52 919.035L1038.9 908.219L1036.73 907.743L1034.35 918.559ZM556.892 795.583C559.596 793.352 562.493 791.027 565.517 788.679L564.157 786.931C561.121 789.298 558.2 791.633 555.487 793.876L556.899 795.585L556.892 795.583ZM1039.11 896.921L1041.28 897.397L1043.65 886.582L1041.49 886.106L1039.11 896.921ZM574.313 781.984C577.295 779.764 580.273 777.593 583.237 775.455L581.937 773.663C578.973 775.801 575.985 777.984 572.988 780.208L574.313 781.984ZM1043.87 875.283L1046.03 875.759L1048.41 864.944L1046.25 864.468L1043.87 875.283ZM592.199 768.92C595.146 766.728 598.104 764.488 601.036 762.199L599.676 760.452C596.754 762.728 593.813 764.958 590.881 767.146L592.206 768.922L592.199 768.92ZM1048.62 853.652L1050.79 854.129L1053.17 843.313L1051 842.837L1048.62 853.652ZM609.704 755.232C612.651 752.78 615.487 750.34 618.128 747.966L616.644 746.321C614.023 748.671 611.211 751.101 608.291 753.53L609.704 755.232ZM626.232 740.348C628.948 737.666 631.541 734.956 633.933 732.304L632.284 730.824C629.919 733.446 627.357 736.119 624.669 738.772L626.225 740.347L626.232 740.348ZM1053.38 832.015L1055.55 832.491L1057.92 821.675L1055.76 821.199L1053.38 832.015ZM641.12 723.778C643.475 720.771 645.667 717.721 647.634 714.708L645.78 713.5C643.846 716.463 641.687 719.462 639.38 722.415L641.127 723.78L641.12 723.778ZM1058.14 810.377L1060.3 810.853L1062.68 800.038L1060.52 799.561L1058.14 810.377ZM653.287 705.06C655.039 701.682 656.573 698.243 657.853 694.848L655.783 694.068C654.534 697.39 653.032 700.744 651.326 704.045L653.294 705.061L653.287 705.06ZM1062.9 788.739L1065.06 789.215L1067.44 778.4L1065.27 777.924L1062.9 788.739ZM661.1 684.115L661.278 683.304C662.025 679.907 662.554 676.449 662.839 673.022L660.632 672.833C660.353 676.166 659.838 679.527 659.114 682.821L658.941 683.605L661.096 684.1L661.1 684.115ZM1067.65 767.108L1069.82 767.585L1072.19 756.769L1070.03 756.293L1067.65 767.108ZM660.765 661.935L662.971 661.8C662.741 658.095 662.222 654.355 661.437 650.679L659.275 651.141C660.039 654.711 660.539 658.339 660.765 661.935ZM1072.41 745.471L1074.57 745.947L1076.95 735.131L1074.79 734.655L1072.41 745.471ZM656.242 640.671L658.32 639.91C657.065 636.47 655.539 633.02 653.793 629.652L651.823 630.675C653.53 633.962 655.011 637.323 656.236 640.67L656.242 640.671ZM1077.17 723.833L1079.33 724.309L1081.71 713.494L1079.54 713.017L1077.17 723.833ZM646.229 621.271L648.065 620.032C646.027 617.01 643.763 613.997 641.34 611.085L639.638 612.499C642.015 615.357 644.229 618.301 646.223 621.263L646.229 621.271ZM632.237 604.391L633.806 602.826C631.225 600.241 628.462 597.694 625.588 595.26L624.157 596.949C626.981 599.351 629.703 601.852 632.236 604.398L632.237 604.391ZM1081.92 702.195L1084.09 702.671L1086.47 691.856L1084.3 691.38L1081.92 702.195ZM615.509 590.154L616.812 588.357C613.828 586.195 610.714 584.097 607.556 582.134L606.385 584.017C609.5 585.949 612.57 588.015 615.509 590.154ZM596.848 578.547L597.885 576.584C597.238 576.247 596.591 575.91 595.95 575.582C593.371 574.265 590.66 572.956 587.891 571.684L586.966 573.693C589.709 574.952 592.392 576.256 594.947 577.553C595.582 577.88 596.223 578.208 596.856 578.542L596.848 578.547ZM576.843 569.312L577.683 567.262C574.382 565.917 570.997 564.596 567.323 563.24L566.556 565.32C570.202 566.67 573.568 567.98 576.842 569.319L576.843 569.312ZM1086.68 680.564L1088.85 681.04L1091.22 670.225L1089.06 669.749L1086.68 680.564ZM556.141 561.611L556.855 559.511C553.355 558.317 549.849 557.15 546.332 556.001L545.645 558.107C549.156 559.253 552.657 560.412 556.143 561.604L556.141 561.611ZM535.11 554.716L535.783 552.608L534.531 552.203C531.433 551.212 528.334 550.228 525.239 549.223L524.56 551.33C527.655 552.334 530.761 553.32 533.859 554.311L535.112 554.709L535.11 554.716ZM514.024 547.875L514.731 545.774C511.235 544.594 507.759 543.39 504.292 542.145L503.538 544.228C507.018 545.483 510.515 546.692 514.024 547.875ZM493.149 540.308L493.963 538.245C491.463 537.256 488.97 536.232 486.494 535.168C485.591 534.783 484.69 534.39 483.792 533.983L482.886 536.004C483.798 536.414 484.706 536.808 485.621 537.204C488.118 538.272 490.623 539.305 493.15 540.301L493.149 540.308ZM472.835 531.199L473.845 529.23C470.561 527.542 467.314 525.754 464.196 523.908L463.07 525.816C466.228 527.678 469.512 529.496 472.835 531.199ZM453.66 519.833L454.905 518.002C451.834 515.907 448.856 513.717 446.044 511.491L444.667 513.228C447.516 515.484 450.538 517.705 453.653 519.832L453.66 519.833ZM1091.44 658.926L1093.6 659.403L1095.98 648.587L1093.81 648.111L1091.44 658.926ZM436.21 505.963L437.719 504.341C435.003 501.812 432.418 499.175 430.04 496.519L428.389 497.994C430.814 500.704 433.446 503.387 436.21 505.963ZM421.365 489.292L423.157 487.992C420.989 485 419.003 481.903 417.259 478.788L415.327 479.87C417.12 483.061 419.154 486.233 421.365 489.292ZM1096.19 637.289L1098.36 637.765L1100.74 626.95L1098.57 626.473L1096.19 637.289ZM410.466 469.784L412.523 468.953C411.154 465.574 410.004 462.085 409.109 458.58L406.964 459.124C407.882 462.721 409.062 466.304 410.468 469.777L410.466 469.784ZM1100.95 615.658L1103.12 616.134L1105.49 605.319L1103.33 604.842L1100.95 615.658ZM404.918 448.107L407.117 447.841C406.694 444.353 406.464 440.778 406.412 436.918L404.199 436.95C404.255 440.891 404.491 444.539 404.924 448.109L404.918 448.107ZM1105.71 594.02L1107.87 594.496L1110.25 583.681L1108.09 583.205L1105.71 594.02ZM404.483 425.79L406.696 425.923C406.897 422.615 407.204 419.021 407.641 414.937L405.436 414.704C404.998 418.825 404.683 422.453 404.482 425.796L404.483 425.79ZM1110.46 572.382L1112.63 572.859L1115.01 562.043L1112.84 561.567L1110.46 572.382ZM406.742 403.682L408.938 403.956L409.17 402.111C409.553 399.06 409.937 396.001 410.298 392.952L408.099 392.692C407.74 395.734 407.357 398.786 406.976 401.83L406.743 403.675L406.742 403.682ZM1115.22 550.745L1117.39 551.221L1119.77 540.405L1117.6 539.929L1115.22 550.745ZM409.208 381.713L411.418 381.889C411.747 377.867 411.928 374.224 411.99 370.763L409.779 370.724C409.719 374.142 409.535 377.734 409.216 381.708L409.208 381.713ZM1119.98 529.114L1122.14 529.59L1124.52 518.775L1122.36 518.298L1119.98 529.114ZM409.471 359.765L411.678 359.594C411.417 356.156 410.98 352.802 410.389 349.623L410.169 348.493L407.996 348.931L408.209 350.03C408.788 353.135 409.214 356.407 409.471 359.765ZM1124.74 507.476L1126.9 507.952L1129.28 497.137L1127.11 496.661L1124.74 507.476ZM405.159 338.396L407.255 337.682C406.064 334.184 404.616 330.701 402.964 327.332L400.976 328.308C402.59 331.589 403.999 334.984 405.159 338.396ZM1129.49 485.838L1131.66 486.315L1134.04 475.499L1131.87 475.023L1129.49 485.838ZM395.566 318.822L397.424 317.616C395.425 314.546 393.194 311.511 390.793 308.597L389.084 310.009C391.434 312.861 393.615 315.827 395.571 318.83L395.566 318.822ZM381.684 301.902L383.248 300.328C380.657 297.755 377.867 295.231 374.956 292.832L373.543 294.54C376.404 296.899 379.138 299.381 381.684 301.902ZM144.07 246.566C146.105 247.014 148.146 247.434 150.193 247.826L150.613 245.655C147.011 244.957 143.419 244.182 139.84 243.315L139.322 245.472C140.903 245.856 142.488 246.219 144.076 246.568L144.07 246.566ZM1134.25 464.201L1136.42 464.677L1138.79 453.861L1136.63 453.385L1134.25 464.201ZM128.561 242.616L129.18 240.489C125.663 239.47 122.126 238.347 118.668 237.161L117.947 239.259C121.44 240.452 125.012 241.583 128.555 242.614L128.561 242.616ZM161.157 249.696C164.689 250.22 168.395 250.704 172.178 251.139L172.431 248.938C168.676 248.509 164.997 248.032 161.487 247.505L161.163 249.697L161.157 249.696ZM183.225 252.234C186.91 252.554 190.598 252.825 194.295 253.061L194.435 250.85C190.761 250.611 187.079 250.343 183.414 250.027L183.225 252.234ZM107.508 235.399L108.328 233.338C104.902 231.972 101.494 230.524 98.1937 229.012L97.2742 231.03C100.608 232.556 104.056 234.02 107.515 235.401L107.508 235.399ZM205.371 253.694C209.057 253.877 212.755 254.042 216.447 254.198L216.538 251.983C212.852 251.829 209.168 251.667 205.484 251.477L205.373 253.687L205.371 253.694ZM364.782 287.9L366.047 286.08C363.052 283.995 359.894 281.967 356.646 280.056L355.52 281.964C358.716 283.849 361.831 285.845 364.782 287.9ZM87.2686 226.149L88.292 224.183C85.0254 222.484 81.7884 220.684 78.6627 218.836L77.5299 220.742C80.687 222.611 83.9638 224.428 87.2617 226.147L87.2686 226.149ZM227.513 254.648C231.2 254.796 234.886 254.95 238.576 255.113L238.674 252.9C234.985 252.73 231.291 252.581 227.604 252.434L227.513 254.648ZM249.625 255.675C253.307 255.879 256.988 256.119 260.663 256.387L260.824 254.18C257.135 253.91 253.446 253.675 249.75 253.468L249.624 255.682L249.625 255.675ZM345.855 276.71L346.846 274.73C343.566 273.093 340.154 271.529 336.71 270.079L335.851 272.118C339.255 273.551 342.622 275.091 345.855 276.71ZM68.1176 214.802L69.3513 212.962C66.2863 210.904 63.2798 208.743 60.4022 206.554L59.0569 208.312C61.9643 210.53 65.0158 212.715 68.1123 214.794L68.1176 214.802ZM271.671 257.329C275.447 257.698 279.138 258.12 282.642 258.574L282.925 256.373C279.4 255.915 275.679 255.493 271.883 255.12L271.665 257.328L271.671 257.329ZM325.572 268.186L326.3 266.089C322.811 264.876 319.237 263.758 315.667 262.75L315.068 264.881C318.592 265.872 322.125 266.981 325.574 268.179L325.572 268.186ZM293.554 260.187C296.8 260.735 300.019 261.335 303.128 261.982L304.379 262.257L304.857 260.085L303.585 259.805C300.446 259.165 297.192 258.558 293.925 258.006L293.561 260.189L293.554 260.187ZM1139.01 442.563L1141.17 443.039L1143.55 432.224L1141.39 431.747L1139.01 442.563ZM50.4095 201.286L51.8581 199.615C49.0747 197.194 46.3621 194.68 43.7923 192.14L42.235 193.715C44.8333 196.29 47.5878 198.842 50.408 201.293L50.4095 201.286ZM34.6001 185.593L36.2683 184.136C33.8476 181.376 31.5161 178.507 29.3273 175.611L27.5633 176.945C29.7789 179.883 32.1457 182.79 34.6069 185.594L34.6001 185.593ZM1143.76 420.932L1145.93 421.408L1148.31 410.593L1146.14 410.117L1143.76 420.932ZM21.1782 167.793L23.0417 166.595C21.0663 163.516 19.1867 160.327 17.4691 157.124L15.516 158.172C17.2589 161.424 19.1637 164.661 21.1713 167.791L21.1782 167.793ZM1148.52 399.294L1150.69 399.77L1153.06 388.955L1150.9 388.479L1148.52 399.294ZM10.6759 148.091L12.7181 147.228C11.3079 143.905 10.0371 140.44 8.92583 136.937L6.81836 137.605C7.95033 141.177 9.25023 144.707 10.6827 148.092L10.6759 148.091ZM3.92079 126.82L6.0814 126.336C5.2953 122.797 4.65337 119.16 4.17708 115.523L1.9802 115.811C2.47181 119.509 3.12239 123.206 3.9223 126.813L3.92079 126.82ZM1153.28 377.657L1155.44 378.133L1157.82 367.317L1155.66 366.841L1153.28 377.657ZM0.97932 104.693L3.19348 104.589C3.02108 100.947 2.99609 97.2578 3.13447 93.6121L0.918356 93.5285C0.780077 97.2391 0.805178 100.993 0.986116 104.694L0.97932 104.693ZM1158.03 356.026L1160.2 356.502L1162.58 345.686L1160.41 345.21L1158.03 356.026ZM1.78749 82.3958L3.98493 82.6627C4.42416 79.0255 5.02527 75.3734 5.76796 71.8318L3.59763 71.3762C2.83982 74.9867 2.23353 78.6952 1.78749 82.3958ZM1162.79 334.388L1164.96 334.864L1167.34 324.049L1165.17 323.573L1162.79 334.388ZM8.48768 61.1996C9.56556 57.674 10.7986 54.1969 12.1656 50.8646L10.1156 50.0247C8.72815 53.4174 7.46638 56.9602 6.37339 60.5546L8.49448 61.2011L8.48768 61.1996ZM1167.55 312.75L1169.71 313.226L1172.09 302.411L1169.93 301.935L1167.55 312.75ZM16.8064 40.936C18.5309 37.6823 20.4222 34.5229 22.4344 31.5343L20.5951 30.2938C18.5472 33.3466 16.6119 36.5756 14.8516 39.8935L16.8079 40.9291L16.8064 40.936ZM29.0259 22.7986C31.4005 19.9977 33.9395 17.334 36.5767 14.8792L35.0665 13.2569C32.3729 15.7714 29.7706 18.4933 27.3381 21.3607L29.0274 22.7917L29.0259 22.7986ZM45.0094 7.93226C47.9513 5.79677 51.0585 3.82737 54.2402 2.07619L53.1752 0.133725C49.9111 1.93167 46.7284 3.94936 43.7095 6.14L45.0094 7.93226Z" fill="#202020"/>
</g>
</svg>
