<svg width="65" height="64" viewBox="0 0 65 64" fill="none" xmlns="http://www.w3.org/2000/svg">
<ellipse cx="32.7441" cy="32.0194" rx="32" ry="31.9867" fill="url(#paint0_linear_136_10102)"/>
<path fill-rule="evenodd" clip-rule="evenodd" d="M46.7836 36.1691C46.4341 36.1711 46.0983 36.0335 45.8502 35.7868L42.682 32.61C42.434 32.3632 42.0981 32.2257 41.7487 32.2277H28.3793C27.3311 32.2277 26.326 31.8093 25.586 31.0648C24.846 30.3203 24.4321 29.3111 24.4356 28.26V22.9873C24.4356 20.8032 26.2013 19.0327 28.3793 19.0327H44.1544C46.3325 19.0327 48.0981 20.8032 48.0981 22.9873V28.26C48.0981 28.988 47.5096 29.5782 46.7836 29.5782C46.0575 29.5782 45.469 28.988 45.469 28.26V22.9873C45.469 22.2592 44.8804 21.6691 44.1544 21.6691H28.3793C27.6533 21.6691 27.0647 22.2592 27.0647 22.9873V28.26C27.0647 28.988 27.6533 29.5782 28.3793 29.5782H41.7487C42.7943 29.5791 43.7967 29.9963 44.5356 30.7382L47.7038 33.915C48.0813 34.2904 48.1961 34.8569 47.9946 35.3503C47.7932 35.8437 47.3152 36.1668 46.7836 36.1691ZM19.4062 37.2028V31.8846C19.4062 31.1503 20.0021 30.5551 20.7372 30.5551C21.4723 30.5551 22.0682 29.9598 22.0682 29.2255C22.0682 28.4913 21.4723 27.896 20.7372 27.896C18.5319 27.896 16.7441 29.6818 16.7441 31.8846V37.2028C16.7441 37.9371 17.3401 38.5324 18.0752 38.5324C18.8103 38.5324 19.4062 37.9371 19.4062 37.2028ZM22.2204 41.3992L19.0627 44.5837L19.0496 44.5704C18.7294 44.9475 18.2266 45.1118 17.748 44.9957C17.2694 44.8796 16.8957 44.5027 16.7805 44.02C16.6654 43.5373 16.8283 43.0303 17.2022 42.7073L20.373 39.5229C21.1094 38.7792 22.1086 38.361 23.1507 38.3601H36.476C37.1996 38.3601 37.7862 37.7685 37.7862 37.0387V35.7174C37.7862 34.9876 38.3729 34.396 39.0965 34.396C39.8201 34.396 40.4067 34.9876 40.4067 35.7174V37.0387C40.4067 39.228 38.6469 41.0028 36.476 41.0028H23.1507C22.8006 41.0042 22.4655 41.147 22.2204 41.3992Z" fill="white"/>
<defs>
<linearGradient id="paint0_linear_136_10102" x1="32.7441" y1="0.0327168" x2="32.7441" y2="64.0062" gradientUnits="userSpaceOnUse">
<stop stop-color="#8606D0"/>
<stop offset="1" stop-color="#6005A2"/>
</linearGradient>
</defs>
</svg>
