<svg width="158" height="57" viewBox="0 0 158 57" fill="none" xmlns="http://www.w3.org/2000/svg">
<g clip-path="url(#clip0_136_5119)">
<path d="M95.2191 47.1315C95.3074 49.9617 97.2045 51.7585 100.064 51.7532C101.06 51.7519 102.068 51.6503 103.047 51.4684C104.017 51.288 104.959 50.9497 105.956 50.669C106.027 51.6355 106.123 52.669 106.156 53.7051C106.162 53.8709 105.918 54.1168 105.733 54.2051C103.59 55.2158 101.313 55.5407 98.9705 55.3789C98.1309 55.3214 97.29 55.1596 96.4718 54.9578C93.2539 54.165 91.4344 52.0313 90.7352 48.8588C90.2392 46.6088 90.3408 44.3761 91.1015 42.2103C92.2325 38.9924 94.5346 37.1047 97.889 36.4924C99.385 36.2197 100.869 36.3012 102.313 36.7464C105.088 37.602 106.496 39.6809 107.001 42.3881C107.253 43.7317 107.182 45.1342 107.277 46.5085C107.313 47.0232 107.092 47.1395 106.611 47.1368C103.091 47.1208 99.5708 47.1302 96.0507 47.1315C95.7873 47.1315 95.5253 47.1315 95.2191 47.1315ZM95.2887 43.9991C95.3462 44.0419 95.3809 44.0914 95.417 44.0914C97.7967 44.1181 100.175 44.1448 102.555 44.1489C102.668 44.1489 102.878 43.959 102.884 43.8494C102.98 41.7932 101.738 39.9403 99.6844 39.8106C97.3595 39.6622 95.5614 41.352 95.2887 43.9991Z" fill="url(#paint0_linear_136_5119)"/>
<path d="M80.9132 47.1353C76.9519 47.1353 73.0602 47.1353 69.0628 47.1353C69.135 48.5524 69.4746 49.7824 70.6176 50.6768C71.643 51.4789 72.8235 51.8051 74.1096 51.8011C76.0201 51.7958 77.8623 51.4468 79.6885 50.634C79.7634 51.7022 79.8637 52.7129 79.877 53.7236C79.8797 53.9094 79.5602 54.1795 79.3329 54.2757C76.8142 55.3479 74.1872 55.6274 71.4893 55.2316C69.9746 55.0097 68.5615 54.5298 67.3328 53.5498C65.655 52.2102 64.7606 50.4388 64.4317 48.3746C63.9545 45.384 64.2071 42.4936 66.0187 39.9387C67.3168 38.1072 69.0628 36.9441 71.3262 36.5443C72.8757 36.2703 74.3931 36.2796 75.8877 36.7101C78.4278 37.44 79.9225 39.2489 80.6404 41.6968C81.1538 43.4428 81.099 45.2543 80.9132 47.1353ZM69.0802 44.0845C71.6029 44.0845 74.0829 44.0845 76.5588 44.0845C76.6711 41.5604 75.3543 39.8652 73.2941 39.801C70.9171 39.7288 69.1283 41.5083 69.0802 44.0845Z" fill="url(#paint1_linear_136_5119)"/>
<path d="M144.841 47.1489C140.869 47.1489 136.939 47.1489 133.016 47.1489C132.929 49.5861 134.816 51.546 137.315 51.7426C139.353 51.903 141.307 51.5541 143.197 50.8014C143.339 50.7452 143.484 50.6958 143.718 50.6115C143.772 51.4912 143.747 52.3375 143.899 53.1503C144.04 53.903 143.73 54.165 143.097 54.3963C140.447 55.3669 137.747 55.6557 134.962 55.165C131.667 54.5848 129.156 52.1008 128.545 48.812C128.014 45.9537 128.082 43.1449 129.621 40.5914C131.639 37.2424 135.284 35.7491 139.165 36.5299C142.029 37.1061 143.79 38.8668 144.599 41.6195C145.12 43.3962 145.132 45.2077 144.841 47.1489ZM140.57 44.1115C140.707 41.6008 139.278 39.8173 137.219 39.812C135.066 39.8066 133.187 41.2705 133.104 44.1115C135.578 44.1115 138.054 44.1115 140.57 44.1115Z" fill="url(#paint2_linear_136_5119)"/>
<path d="M125.87 54.8788C124.303 54.8788 122.8 54.8788 121.2 54.8788C121.2 54.5326 121.201 54.2077 121.2 53.8842C121.181 50.344 121.165 46.8026 121.142 43.2624C121.134 42.0391 120.728 40.9803 119.549 40.4816C118.338 39.9696 117.102 40.0578 115.991 40.8386C115.612 41.106 115.235 41.4095 114.955 41.7731C114.731 42.0645 114.537 42.4696 114.534 42.8266C114.506 46.5459 114.518 50.2651 114.519 53.9844C114.519 54.2505 114.519 54.5179 114.519 54.8494C112.919 54.8494 111.351 54.8494 109.747 54.8494C109.73 54.804 109.68 54.7237 109.68 54.6435C109.68 49.0098 109.684 43.3747 109.688 37.741C109.689 36.8239 109.69 36.8319 110.575 36.8225C111.489 36.8132 112.402 36.8051 113.313 36.7597C113.74 36.7383 113.91 36.8814 113.939 37.3065C113.978 37.8546 114.074 38.3987 114.161 39.0605C114.608 38.6875 114.986 38.364 115.372 38.0485C117.498 36.3145 119.9 35.9321 122.467 36.7436C124.426 37.3626 125.469 38.8426 125.705 40.8439C125.846 42.0338 125.867 43.241 125.872 44.4416C125.89 47.6929 125.872 50.9443 125.868 54.197C125.868 54.4096 125.87 54.6261 125.87 54.8788Z" fill="url(#paint3_linear_136_5119)"/>
<path d="M68.02 29.6084C68.02 30.8477 68.036 32.0656 67.9932 33.2809C67.9892 33.3959 67.6216 33.5897 67.421 33.5924C65.4839 33.6165 63.5467 33.6084 61.6095 33.6084C61.3675 33.6084 61.1255 33.6084 60.81 33.6084C60.81 40.6967 60.81 47.7409 60.81 54.8506C59.1295 54.8506 57.5226 54.8506 55.8407 54.8506C55.8407 54.4495 55.8407 54.0565 55.8407 53.6634C55.8407 47.2061 55.8327 40.7489 55.8528 34.2903C55.8541 33.706 55.6629 33.6004 55.1228 33.6124C53.2084 33.6539 51.2939 33.6419 49.3781 33.6459C49.2498 33.6459 49.1214 33.6218 48.9463 33.6044C48.9463 32.2715 48.9463 30.9667 48.9463 29.6084C55.2819 29.6084 61.6322 29.6084 68.02 29.6084Z" fill="url(#paint4_linear_136_5119)"/>
<path d="M58.4199 18.3676C59.6272 17.6684 60.8183 16.9398 62.0429 16.274C66.8304 13.6724 71.9775 12.401 77.4027 12.2753C81.3091 12.1844 85.1046 12.8997 88.844 14.0093C93.3667 15.3502 97.5873 17.4064 101.88 19.3021C106.345 21.2741 110.875 23.0963 115.704 23.9612C122.069 25.103 128.414 25.0789 134.695 23.3142C142.422 21.143 149.03 17.1123 154.629 11.3889C154.675 11.3422 154.734 11.3061 154.865 11.3087C154.771 11.4504 154.691 11.6029 154.582 11.7312C149.262 18.0267 142.767 22.5709 134.818 24.9251C128.374 26.8329 121.842 27.2968 115.209 26.0802C109.249 24.9866 103.676 22.7781 98.2103 20.25C94.229 18.4077 90.2397 16.5855 86.011 15.3716C81.6741 14.1269 77.281 13.5601 72.7462 14.0227C67.7248 14.536 63.0376 15.9839 58.6539 18.4599C58.6164 18.4812 58.571 18.4853 58.5282 18.4973C58.4935 18.4532 58.4574 18.4104 58.4199 18.3676Z" fill="url(#paint5_linear_136_5119)"/>
<path d="M153.819 8.34788C153.732 8.4575 153.653 8.57649 153.555 8.67676C148.159 14.2503 141.845 18.4014 134.407 20.6728C129.218 22.2571 123.881 22.6127 118.472 22.0846C113.542 21.6033 108.885 20.1929 104.37 18.2276C100.229 16.4255 96.1216 14.5311 91.9304 12.8533C87.2525 10.9803 82.3996 9.78238 77.3019 9.89201C72.5078 9.99361 67.9182 11.0097 63.4943 12.8706C60.2269 14.245 57.1988 15.9923 54.4541 18.233C54.3779 18.2958 54.283 18.3346 54.1975 18.3854C54.1654 18.3399 54.1333 18.2931 54.1025 18.2477C55.1279 17.4148 56.1387 16.5632 57.1814 15.7517C62.0023 12.0003 67.4248 9.59388 73.4583 8.62328C79.4971 7.65135 85.3822 8.36927 91.1683 10.281C95.8529 11.8292 100.259 14.019 104.759 15.9937C108.726 17.7343 112.816 19.1448 117.09 19.8506C121.365 20.5579 125.675 20.6595 129.991 19.9723C138.705 18.5859 146.25 14.7958 152.853 9.02168C153.145 8.76633 153.438 8.51232 153.729 8.2583C153.76 8.28772 153.789 8.31847 153.819 8.34788Z" fill="url(#paint6_linear_136_5119)"/>
<path d="M150.344 7.22048C149.061 8.22851 147.819 9.29536 146.486 10.2312C141.995 13.3836 137.101 15.6885 131.735 16.897C127.915 17.758 124.051 18.0682 120.124 17.7714C113.579 17.2754 107.507 15.2125 101.611 12.4826C97.6928 10.6684 93.7704 8.86087 89.6193 7.61487C84.5831 6.10282 79.4507 5.53464 74.2328 6.22181C65.6578 7.3515 58.2848 11.0467 51.9639 16.9077C51.8502 17.0133 51.7379 17.123 51.6216 17.2259C51.5936 17.25 51.5494 17.2553 51.4385 17.1978C52.1778 16.4532 52.8823 15.6684 53.6644 14.9719C56.4813 12.4665 59.4078 10.1095 62.8062 8.40899C69.5028 5.0587 76.5363 3.57205 84.031 4.46645C89.3037 5.09479 94.269 6.72047 99.0872 8.88092C103.044 10.6563 106.948 12.5614 111.101 13.8689C116.267 15.4959 121.542 16.373 126.962 15.9853C131.248 15.6791 135.398 14.6804 139.414 13.131C143.22 11.6617 146.744 9.69242 149.995 7.22984C150.074 7.17101 150.164 7.12556 150.248 7.07476C150.279 7.12556 150.312 7.17235 150.344 7.22048Z" fill="url(#paint7_linear_136_5119)"/>
<path d="M146.541 6.20854C145.014 7.06817 143.518 7.99064 141.953 8.77273C138.272 10.6123 134.418 11.9826 130.354 12.6899C128.954 12.9332 127.529 13.1431 126.112 13.1618C123.536 13.1966 120.93 13.2942 118.39 12.9626C115.691 12.6097 113.038 11.8449 110.394 11.1538C106.954 10.254 103.785 8.64171 100.535 7.2433C96.8535 5.65907 93.1343 4.16574 89.2198 3.24862C85.6542 2.41305 82.0473 1.9331 78.3654 2.11091C74.5352 2.2954 70.8199 3.00664 67.1889 4.23392C61.769 6.06549 56.9949 8.97059 52.7609 12.7928C52.7128 12.8356 52.6513 12.865 52.5283 12.8516C52.6232 12.7286 52.7075 12.5963 52.8144 12.4853C58.5511 6.60426 65.4509 2.81947 73.5071 1.274C79.4149 0.141643 85.3214 0.32881 91.1957 1.7593C95.9832 2.92509 100.469 4.86895 104.967 6.80212C108.795 8.44652 112.687 9.90375 116.79 10.7139C122.701 11.881 128.593 11.8757 134.486 10.5174C138.677 9.55081 142.624 7.97192 146.449 6.04142C146.478 6.09757 146.51 6.15239 146.541 6.20854Z" fill="url(#paint8_linear_136_5119)"/>
<path d="M148.105 40.3279C147.268 40.3279 146.495 40.3279 145.657 40.3279C145.657 39.1754 145.657 38.0738 145.657 36.8947C146.275 36.8572 146.93 36.8038 147.585 36.7837C148.052 36.7703 148.271 36.5738 148.282 36.0965C148.303 35.2075 148.391 34.3198 148.382 33.4321C148.376 32.8973 148.459 32.5805 149.074 32.4762C150.252 32.2743 151.415 31.9896 152.779 31.6968C152.779 32.9789 152.78 34.1259 152.779 35.273C152.778 36.8559 152.776 36.8559 154.391 36.8546C155.234 36.8546 156.076 36.8546 157.041 36.8546C157.041 37.9254 157.058 38.9428 157.017 39.9575C157.012 40.0738 156.679 40.265 156.494 40.269C155.449 40.2918 154.401 40.2837 153.355 40.2517C152.918 40.2383 152.786 40.3733 152.79 40.8212C152.808 43.36 152.77 45.8988 152.804 48.4375C152.814 49.1341 152.945 49.848 153.14 50.5178C153.336 51.1889 153.93 51.4844 154.601 51.4763C155.367 51.467 156.133 51.3667 156.986 51.2999C157.04 52.2838 157.111 53.3413 157.137 54.4002C157.14 54.5232 156.921 54.713 156.767 54.7678C154.954 55.4256 153.106 55.4951 151.26 54.9577C149.659 54.4911 148.715 53.3547 148.385 51.7531C148.211 50.9108 148.141 50.0338 148.132 49.1728C148.105 46.4121 148.128 43.6501 148.131 40.888C148.131 40.7329 148.117 40.5792 148.105 40.3279Z" fill="url(#paint9_linear_136_5119)"/>
<path d="M83.5254 28.9976C85.0241 28.9976 86.5067 28.9976 88.0642 28.9976C88.0642 37.6179 88.0642 46.2009 88.0642 54.8427C86.603 54.8427 85.1043 54.8427 83.5254 54.8427C83.5254 46.2557 83.5254 37.6581 83.5254 28.9976Z" fill="url(#paint10_linear_136_5119)"/>
<path d="M43.8194 32.8183C43.8261 31.956 43.6363 31.2354 43.0601 30.6284C42.4798 30.0161 41.917 29.3637 41.2379 28.8784C40.786 28.5549 40.1483 28.3463 39.5908 28.3383C36.3849 28.2862 33.1763 28.3102 29.9691 28.3102C29.8287 28.3102 29.6896 28.3463 29.4209 28.3851C30.1656 29.2701 30.8233 30.0763 31.5172 30.849C31.6348 30.9814 31.9116 31.0135 32.1175 31.0175C34.1883 31.0589 36.2592 31.0763 38.3301 31.1164C39.3087 31.1351 40.2058 31.7889 40.5159 32.702C40.7285 33.325 40.5881 33.8785 40.1162 34.3531C39.6429 34.829 39.1162 34.9787 38.4798 34.71C37.6082 34.3424 37.4183 33.6512 37.6376 32.7301C37.2953 32.7301 37.0547 32.7301 36.8154 32.7301C34.9223 32.7247 33.0292 32.7073 31.1362 32.722C30.5265 32.7274 30.1215 32.5148 29.7511 32.0054C28.9276 30.8731 28.0399 29.7835 27.1348 28.714C26.9543 28.5001 26.5853 28.3396 26.3019 28.3383C23.1842 28.3142 20.0652 28.3263 16.9462 28.3276C12.9368 28.3289 8.92745 28.3691 4.91806 28.3102C2.82312 28.2795 0.244224 30.1258 0.420696 32.7688C0.503584 34.0108 0.42337 35.2622 0.42337 36.5095C0.424706 41.6553 0.414011 46.7997 0.436739 51.9454C0.447434 54.3987 2.52499 56.5524 4.89667 56.5618C11.378 56.5859 17.8593 56.5859 24.3407 56.5631C24.6869 56.5618 25.104 56.3399 25.3621 56.0912C26.0479 55.4268 26.6642 54.6915 27.3059 53.9816C27.5987 53.6567 27.8862 53.3265 28.2845 52.8759C27.3313 52.8759 26.5412 52.8759 25.7177 52.8759C25.7177 50.9615 25.6923 49.162 25.7311 47.3639C25.7458 46.7181 26.2819 46.3184 26.953 46.3104C28.6896 46.2917 30.4276 46.2983 32.1643 46.2502C32.6683 46.2355 32.7712 46.4307 32.7632 46.8665C32.7445 47.7796 32.7966 48.6954 32.7391 49.6045C32.7151 49.9949 32.5814 50.4481 32.3394 50.7422C30.9757 52.388 29.5613 53.9896 28.1709 55.6139C27.9209 55.9054 27.7043 56.2249 27.4316 56.5845C27.6281 56.6206 27.6896 56.6407 27.7525 56.6407C31.1161 56.638 34.4784 56.6433 37.8421 56.6126C38.163 56.6099 38.5574 56.4495 38.7873 56.2276C40.179 54.8826 41.5333 53.4989 42.8983 52.1259C43.5962 51.424 43.8194 50.6005 43.8127 49.5911C43.7673 44.0002 43.778 38.4092 43.8194 32.8183ZM12.0411 32.1378C13.9422 32.1378 15.8807 32.1378 17.9008 32.1378C17.9008 34.4025 17.9008 36.6592 17.9008 38.9761C15.9569 38.9761 14.0358 38.9761 12.0411 38.9761C12.0411 36.7328 12.0411 34.4774 12.0411 32.1378ZM4.39399 33.972C4.4488 33.0496 5.70282 32.1378 6.7416 32.1057C8.05445 32.0643 9.36863 32.0629 10.6828 32.0883C10.8553 32.091 11.1694 32.3477 11.1721 32.4907C11.2042 34.6231 11.1935 36.7568 11.1935 38.9788C8.85124 38.9788 6.63465 38.9788 4.36725 38.9788C4.36591 37.2902 4.29506 35.6258 4.39399 33.972ZM4.26163 39.94C6.60122 39.94 8.83787 39.94 11.128 39.94C11.128 42.0416 11.128 44.1205 11.128 46.2449C10.9248 46.2676 10.7296 46.3077 10.5344 46.309C8.66541 46.3264 6.79508 46.3304 4.92474 46.3572C4.45682 46.3638 4.24425 46.2275 4.25094 45.7128C4.27634 43.8224 4.26163 41.932 4.26163 39.94ZM11.8352 52.8746C10.0839 52.8746 8.33119 52.892 6.57983 52.8679C5.4448 52.8532 4.31244 51.7075 4.29773 50.5831C4.2857 49.6045 4.32447 48.6259 4.3218 47.6473C4.32046 47.305 4.45148 47.174 4.79239 47.1727C6.74962 47.17 8.70686 47.1593 10.6641 47.1406C11.0344 47.1366 11.1801 47.2689 11.1574 47.6526C11.1227 48.2516 11.14 48.8532 11.124 49.4534C11.0919 50.6273 10.9248 51.8291 11.9823 52.7583C11.9342 52.7971 11.8847 52.8358 11.8352 52.8746ZM17.8754 52.8759C16.358 52.8759 14.9355 52.92 13.5184 52.8572C12.8259 52.8265 11.9863 51.7222 11.9823 50.9601C11.9676 47.4414 11.9769 43.9227 11.9609 40.4039C11.9596 39.9627 12.1681 39.8945 12.5358 39.8945C14.2951 39.8932 16.0532 39.8772 17.8125 39.8665C18.0772 39.8651 18.342 39.8665 18.731 39.8665C18.731 39.3451 18.7297 38.8638 18.731 38.3825C18.7377 36.5122 18.7617 34.6405 18.7404 32.7702C18.735 32.2661 18.8366 32.0563 19.3928 32.0669C20.9957 32.1004 22.6 32.0883 24.203 32.0696C24.6923 32.0643 24.8474 32.2314 24.8447 32.7327C24.826 35.583 24.8433 38.4333 24.8474 41.2849C24.8487 42.1967 23.7564 43.3103 22.8166 43.3277C21.9035 43.3438 20.989 43.301 20.0786 43.3424C19.7738 43.3558 19.4222 43.4841 19.1869 43.6753C18.3273 44.3772 17.8112 45.2221 17.8526 46.4267C17.9289 48.5377 17.8754 50.6513 17.8754 52.8759ZM32.1816 45.4347C30.5346 45.4187 28.8875 45.428 27.2418 45.4387C25.7524 45.4481 24.846 46.3585 24.8474 47.8238C24.8487 49.293 24.834 50.7609 24.8594 52.2302C24.8674 52.7075 24.7538 52.8987 24.231 52.8893C22.5853 52.8612 20.9369 52.8733 19.2912 52.8946C18.8313 52.9 18.6789 52.7543 18.6842 52.2783C18.7083 50.1647 18.6949 48.051 18.6909 45.9374C18.6896 45.1018 19.5759 44.174 20.4021 44.1566C21.2029 44.1406 22.0037 44.1165 22.8046 44.1058C24.1883 44.0871 25.5786 42.7087 25.5987 41.3077C25.6134 40.3157 25.6014 39.3237 25.6014 38.2381C25.8313 38.4012 26.0479 38.5349 26.2418 38.694C27.2337 39.5109 28.3059 40.0322 29.6549 39.9186C30.6455 39.8357 31.6482 39.9026 32.7578 39.9026C32.7578 40.3892 32.7578 40.801 32.7578 41.2127C32.7605 42.4146 32.7378 43.6165 32.7766 44.817C32.7926 45.2957 32.6455 45.4387 32.1816 45.4347ZM32.7685 38.5296C32.7685 38.8758 32.6963 39.055 32.2886 39.0536C31.1108 39.0483 29.9276 39.1512 28.7565 39.075C28.2431 39.0416 27.7017 38.7515 27.2578 38.4507C26.088 37.6566 25.3206 36.6271 25.6308 35.0924C25.6696 34.8999 25.6361 34.694 25.6361 34.4934C25.6482 34.4934 25.6589 34.4934 25.6709 34.4934C25.6709 33.8704 25.6909 33.2474 25.6642 32.6258C25.6468 32.2407 25.7939 32.1177 26.1629 32.1204C26.9182 32.1258 27.6776 32.0563 28.4289 32.1044C28.7177 32.1231 29.0493 32.3156 29.2645 32.5282C29.9824 33.2367 30.5573 34.0656 31.6683 34.3103C32.441 34.4801 32.8207 35.2421 32.8073 36.063C32.7939 36.8852 32.7672 37.7074 32.7685 38.5296Z" fill="url(#paint11_linear_136_5119)"/>
</g>
<defs>
<linearGradient id="paint0_linear_136_5119" x1="98.8556" y1="36.3354" x2="98.8556" y2="55.4184" gradientUnits="userSpaceOnUse">
<stop stop-color="#8606D0"/>
<stop offset="1" stop-color="#6005A2"/>
</linearGradient>
<linearGradient id="paint1_linear_136_5119" x1="72.6331" y1="36.3589" x2="72.6331" y2="55.4027" gradientUnits="userSpaceOnUse">
<stop stop-color="#8606D0"/>
<stop offset="1" stop-color="#6005A2"/>
</linearGradient>
<linearGradient id="paint2_linear_136_5119" x1="136.639" y1="36.3267" x2="136.639" y2="55.3998" gradientUnits="userSpaceOnUse">
<stop stop-color="#8606D0"/>
<stop offset="1" stop-color="#6005A2"/>
</linearGradient>
<linearGradient id="paint3_linear_136_5119" x1="117.78" y1="36.3359" x2="117.78" y2="54.8788" gradientUnits="userSpaceOnUse">
<stop stop-color="#8606D0"/>
<stop offset="1" stop-color="#6005A2"/>
</linearGradient>
<linearGradient id="paint4_linear_136_5119" x1="58.4846" y1="29.6084" x2="58.4846" y2="54.8506" gradientUnits="userSpaceOnUse">
<stop stop-color="#8606D0"/>
<stop offset="1" stop-color="#6005A2"/>
</linearGradient>
<linearGradient id="paint5_linear_136_5119" x1="106.642" y1="11.3086" x2="106.642" y2="26.7525" gradientUnits="userSpaceOnUse">
<stop stop-color="#8606D0"/>
<stop offset="1" stop-color="#6005A2"/>
</linearGradient>
<linearGradient id="paint6_linear_136_5119" x1="103.961" y1="8.19141" x2="103.961" y2="22.3128" gradientUnits="userSpaceOnUse">
<stop stop-color="#8606D0"/>
<stop offset="1" stop-color="#6005A2"/>
</linearGradient>
<linearGradient id="paint7_linear_136_5119" x1="100.891" y1="4.21094" x2="100.891" y2="17.881" gradientUnits="userSpaceOnUse">
<stop stop-color="#8606D0"/>
<stop offset="1" stop-color="#6005A2"/>
</linearGradient>
<linearGradient id="paint8_linear_136_5119" x1="99.5347" y1="0.539062" x2="99.5347" y2="13.2024" gradientUnits="userSpaceOnUse">
<stop stop-color="#8606D0"/>
<stop offset="1" stop-color="#6005A2"/>
</linearGradient>
<linearGradient id="paint9_linear_136_5119" x1="151.397" y1="31.6968" x2="151.397" y2="55.3162" gradientUnits="userSpaceOnUse">
<stop stop-color="#8606D0"/>
<stop offset="1" stop-color="#6005A2"/>
</linearGradient>
<linearGradient id="paint10_linear_136_5119" x1="85.7948" y1="28.9976" x2="85.7948" y2="54.8427" gradientUnits="userSpaceOnUse">
<stop stop-color="#8606D0"/>
<stop offset="1" stop-color="#6005A2"/>
</linearGradient>
<linearGradient id="paint11_linear_136_5119" x1="22.1159" y1="28.3047" x2="22.1159" y2="56.6407" gradientUnits="userSpaceOnUse">
<stop stop-color="#8606D0"/>
<stop offset="1" stop-color="#6005A2"/>
</linearGradient>
<clipPath id="clip0_136_5119">
<rect width="156.729" height="56.1007" fill="white" transform="translate(0.412109 0.540039)"/>
</clipPath>
</defs>
</svg>
