<svg width="65" height="65" viewBox="0 0 65 65" fill="none" xmlns="http://www.w3.org/2000/svg">
<ellipse cx="32.8867" cy="32.2011" rx="32" ry="31.9867" fill="url(#paint0_linear_136_10121)"/>
<path d="M45.5606 26.5001C45.5606 26.5001 39.816 33.6429 32.7446 33.6429C25.6732 33.6429 19.9286 26.5001 19.9286 26.5001M24.4581 42.2144H41.0296C42.6297 42.2144 43.4299 42.2144 44.041 41.9029C44.5786 41.6291 45.0157 41.1919 45.2896 40.6544C45.601 40.0432 45.601 39.2431 45.601 37.6429V26.7858C45.601 25.1856 45.601 24.3856 45.2896 23.7744C45.0157 23.2368 44.5786 22.7997 44.041 22.5258C43.4299 22.2144 42.6297 22.2144 41.0296 22.2144H24.4581C22.858 22.2144 22.0579 22.2144 21.4467 22.5258C20.9091 22.7997 20.472 23.2368 20.1981 23.7744C19.8867 24.3856 19.8867 25.1856 19.8867 26.7858V37.6429C19.8867 39.2431 19.8867 40.0432 20.1981 40.6544C20.472 41.1919 20.9091 41.6291 21.4467 41.9029C22.0579 42.2144 22.858 42.2144 24.4581 42.2144Z" stroke="white" stroke-width="2" stroke-linecap="round" stroke-linejoin="round"/>
<defs>
<linearGradient id="paint0_linear_136_10121" x1="32.8867" y1="0.214357" x2="32.8867" y2="64.1878" gradientUnits="userSpaceOnUse">
<stop stop-color="#8606D0"/>
<stop offset="1" stop-color="#6005A2"/>
</linearGradient>
</defs>
</svg>
