<svg width="47" height="51" viewBox="0 0 47 51" fill="none" xmlns="http://www.w3.org/2000/svg">
<path d="M27.1838 49.3892H18.9109C11.1108 49.3892 7.21076 49.3892 4.788 46.9664C2.36523 44.5436 2.36523 40.6436 2.36523 32.8435V23.3888C2.36523 18.9309 2.36523 16.7043 3.75035 15.3192C5.13546 13.9341 7.36204 13.9341 11.8199 13.9341H30.7293C35.1872 13.9341 37.4138 13.9341 38.7989 15.3192C40.184 16.7043 40.184 18.9309 40.184 23.3888V25.7524" stroke="url(#paint0_linear_136_7968)" stroke-width="2.96746" stroke-linecap="round" stroke-linejoin="round"/>
<path d="M30.7287 19.8433C30.7287 10.7053 26.4977 2.11572 21.274 2.11572C16.0503 2.11572 11.8193 10.7053 11.8193 19.8433M43.1049 34.0797C41.4675 33.2505 39.655 32.8265 37.8197 32.8435C35.9844 32.8265 34.1719 33.2505 32.5346 34.0797C31.8018 34.4626 31.4378 34.654 31.0833 35.2544C30.7287 35.8548 30.7287 36.4362 30.7287 37.5992V40.4852C30.7287 45.1889 34.3073 47.8008 36.3803 48.9212C36.9594 49.2332 37.2477 49.3892 37.8197 49.3892C38.3917 49.3892 38.6801 49.2332 39.2592 48.9212C41.3321 47.8008 44.9107 45.1866 44.9107 40.4852V37.5992C44.9107 36.4362 44.9107 35.8548 44.5562 35.2544C44.2016 34.654 43.8376 34.4626 43.1049 34.0797Z" stroke="url(#paint1_linear_136_7968)" stroke-width="2.96746" stroke-linecap="round" stroke-linejoin="round"/>
<defs>
<linearGradient id="paint0_linear_136_7968" x1="21.2746" y1="13.9341" x2="21.2746" y2="49.3892" gradientUnits="userSpaceOnUse">
<stop stop-color="#8606D0"/>
<stop offset="1" stop-color="#6005A2"/>
</linearGradient>
<linearGradient id="paint1_linear_136_7968" x1="28.365" y1="2.11572" x2="28.365" y2="49.3892" gradientUnits="userSpaceOnUse">
<stop stop-color="#8606D0"/>
<stop offset="1" stop-color="#6005A2"/>
</linearGradient>
</defs>
</svg>
