<svg width="91" height="91" viewBox="0 0 91 91" fill="none" xmlns="http://www.w3.org/2000/svg">
<path d="M18.6807 60.09C18.6807 56.1595 18.6807 54.1964 19.9019 52.9752C21.1231 51.754 23.0862 51.754 27.0166 51.754H31.1846C35.115 51.754 37.0781 51.754 38.2993 52.9752C39.5206 54.1964 39.5206 56.1595 39.5206 60.09V64.2579C39.5206 68.1883 39.5206 70.1515 38.2993 71.3727C37.0781 72.5939 35.115 72.5939 31.1846 72.5939C25.2911 72.5939 22.3443 72.5939 20.5146 70.76C18.6807 68.9302 18.6807 65.9835 18.6807 60.09ZM18.6807 30.9141C18.6807 25.0206 18.6807 22.0738 20.5146 20.2441C22.3443 18.4102 25.2911 18.4102 31.1846 18.4102C35.115 18.4102 37.0781 18.4102 38.2993 19.6314C39.5206 20.8526 39.5206 22.8157 39.5206 26.7461V30.9141C39.5206 34.8445 39.5206 36.8076 38.2993 38.0288C37.0781 39.2501 35.115 39.2501 31.1846 39.2501H27.0166C23.0862 39.2501 21.1231 39.2501 19.9019 38.0288C18.6807 36.8076 18.6807 34.8445 18.6807 30.9141ZM52.0245 60.09C52.0245 56.1595 52.0245 54.1964 53.2457 52.9752C54.4669 51.754 56.4301 51.754 60.3605 51.754H64.5284C68.4588 51.754 70.422 51.754 71.6432 52.9752C72.8644 54.1964 72.8644 56.1595 72.8644 60.09C72.8644 65.9835 72.8644 68.9302 71.0305 70.76C69.2007 72.5939 66.254 72.5939 60.3605 72.5939C56.4301 72.5939 54.4669 72.5939 53.2457 71.3727C52.0245 70.1515 52.0245 68.1883 52.0245 64.2579V60.09ZM52.0245 26.7461C52.0245 22.8157 52.0245 20.8526 53.2457 19.6314C54.4669 18.4102 56.4301 18.4102 60.3605 18.4102C66.254 18.4102 69.2007 18.4102 71.0305 20.2441C72.8644 22.0738 72.8644 25.0206 72.8644 30.9141C72.8644 34.8445 72.8644 36.8076 71.6432 38.0288C70.422 39.2501 68.4588 39.2501 64.5284 39.2501H60.3605C56.4301 39.2501 54.4669 39.2501 53.2457 38.0288C52.0245 36.8076 52.0245 34.8445 52.0245 30.9141V26.7461Z" stroke="url(#paint0_linear_136_8018)" stroke-width="6.25197"/>
<path opacity="0.5" d="M87.4533 53.838C87.4533 69.5555 87.4533 77.4163 82.5685 82.297C77.6836 87.1777 69.827 87.1819 54.1095 87.1819M37.4376 87.1819C21.7201 87.1819 13.8593 87.1818 8.97862 82.297C4.09792 77.4121 4.09375 69.5555 4.09375 53.838M37.4376 3.82227C21.7201 3.82227 13.8593 3.82227 8.97862 8.70714C4.09792 13.592 4.09375 21.4487 4.09375 37.1661M54.1095 3.82227C69.827 3.82227 77.6878 3.82227 82.5685 8.70714C87.4492 13.592 87.4533 21.4487 87.4533 37.1661" stroke="url(#paint1_linear_136_8018)" stroke-width="6.25197" stroke-linecap="round"/>
<defs>
<linearGradient id="paint0_linear_136_8018" x1="45.7725" y1="18.4102" x2="45.7725" y2="72.5939" gradientUnits="userSpaceOnUse">
<stop stop-color="#8606D0"/>
<stop offset="1" stop-color="#6005A2"/>
</linearGradient>
<linearGradient id="paint1_linear_136_8018" x1="45.7735" y1="3.82227" x2="45.7735" y2="87.1819" gradientUnits="userSpaceOnUse">
<stop stop-color="#8606D0"/>
<stop offset="1" stop-color="#6005A2"/>
</linearGradient>
</defs>
</svg>
