<svg width="47" height="48" viewBox="0 0 47 48" fill="none" xmlns="http://www.w3.org/2000/svg">
<path d="M45.3301 24.1401C45.3301 26.9964 44.7675 29.8247 43.6745 32.4635C42.5814 35.1023 40.9793 37.5 38.9596 39.5197C36.94 41.5394 34.5423 43.1415 31.9034 44.2345C29.2646 45.3276 26.4363 45.8901 23.5801 45.8901C20.7238 45.8901 17.8955 45.3276 15.2567 44.2345C12.6179 43.1415 10.2202 41.5394 8.20051 39.5197C6.18083 37.5 4.57874 35.1023 3.4857 32.4635C2.39266 29.8247 1.83008 26.9964 1.83008 24.1401C1.83008 18.3717 4.12159 12.8395 8.20051 8.76056C12.2794 4.68165 17.8116 2.39014 23.5801 2.39014C29.3485 2.39014 34.8807 4.68165 38.9596 8.76056C43.0386 12.8395 45.3301 18.3717 45.3301 24.1401Z" stroke="url(#paint0_linear_136_7979)" stroke-width="2.97" stroke-linecap="round" stroke-linejoin="round"/>
<path d="M38.0801 9.64014L29.5613 18.1589M29.5613 18.1589C32.819 21.419 32.819 26.8637 29.5613 30.1214M29.5613 18.1589C26.3037 14.9012 20.8589 14.9012 17.5988 18.1589M9.08008 38.6401L17.5988 30.1214M17.5988 30.1214C14.3412 26.8637 14.3412 21.419 17.5988 18.1589M17.5988 30.1214C20.8565 33.3791 26.3012 33.3791 29.5613 30.1214M9.08008 9.64014L17.5988 18.1589M38.0801 38.6401L29.5613 30.1214" stroke="url(#paint1_linear_136_7979)" stroke-width="2.97" stroke-linecap="round" stroke-linejoin="round"/>
<defs>
<linearGradient id="paint0_linear_136_7979" x1="23.5801" y1="2.39014" x2="23.5801" y2="45.8901" gradientUnits="userSpaceOnUse">
<stop stop-color="#8606D0"/>
<stop offset="1" stop-color="#6005A2"/>
</linearGradient>
<linearGradient id="paint1_linear_136_7979" x1="23.5801" y1="9.64014" x2="23.5801" y2="38.6401" gradientUnits="userSpaceOnUse">
<stop stop-color="#8606D0"/>
<stop offset="1" stop-color="#6005A2"/>
</linearGradient>
</defs>
</svg>
