<svg width="158" height="57" viewBox="0 0 158 57" fill="none" xmlns="http://www.w3.org/2000/svg">
<g clip-path="url(#clip0_136_2169)">
<path d="M95.4096 46.6808C95.4978 49.5111 97.3949 51.3079 100.255 51.3025C101.251 51.3012 102.259 51.1996 103.237 51.0177C104.208 50.8373 105.149 50.499 106.146 50.2183C106.217 51.1849 106.313 52.2183 106.347 53.2544C106.352 53.4202 106.109 53.6662 105.923 53.7544C103.78 54.7651 101.503 55.09 99.1609 54.9282C98.3214 54.8707 97.4804 54.709 96.6623 54.5071C93.4443 53.7143 91.6248 51.5806 90.9256 48.4081C90.4296 46.1581 90.5312 43.9254 91.2919 41.7597C92.4229 38.5417 94.7251 36.654 98.0794 36.0417C99.5754 35.769 101.059 35.8505 102.503 36.2957C105.279 37.1513 106.686 39.2302 107.192 41.9375C107.443 43.2811 107.372 44.6835 107.467 46.0578C107.503 46.5725 107.283 46.6888 106.801 46.6862C103.281 46.6701 99.7612 46.6795 96.2411 46.6808C95.9778 46.6808 95.7157 46.6808 95.4096 46.6808ZM95.4791 43.5484C95.5366 43.5912 95.5713 43.6407 95.6074 43.6407C97.9871 43.6674 100.365 43.6942 102.745 43.6982C102.859 43.6982 103.069 43.5083 103.074 43.3987C103.17 41.3425 101.928 39.4896 99.8749 39.3599C97.55 39.2115 95.7518 40.9014 95.4791 43.5484Z" fill="white"/>
<path d="M81.1036 46.6856C77.1423 46.6856 73.2506 46.6856 69.2532 46.6856C69.3254 48.1027 69.665 49.3327 70.8081 50.2271C71.8335 51.0292 73.014 51.3554 74.3001 51.3514C76.2105 51.3461 78.0528 50.9971 79.879 50.1843C79.9538 51.2525 80.0541 52.2632 80.0675 53.2739C80.0702 53.4597 79.7506 53.7298 79.5234 53.826C77.0046 54.8982 74.3776 55.1777 71.6797 54.7819C70.165 54.56 68.7519 54.08 67.5233 53.1001C65.8454 51.7605 64.9511 49.9891 64.6222 47.9249C64.1449 44.9343 64.3976 42.0439 66.2091 39.489C67.5072 37.6575 69.2532 36.4943 71.5166 36.0946C73.0661 35.8205 74.5835 35.8299 76.0781 36.2604C78.6183 36.9903 80.1129 38.7992 80.8309 41.2471C81.3442 42.9931 81.2894 44.8046 81.1036 46.6856ZM69.2706 43.6348C71.7934 43.6348 74.2733 43.6348 76.7493 43.6348C76.8616 41.1107 75.5447 39.4155 73.4845 39.3513C71.1075 39.2791 69.3187 41.0586 69.2706 43.6348Z" fill="white"/>
<path d="M145.031 46.6983C141.059 46.6983 137.13 46.6983 133.206 46.6983C133.119 49.1354 135.007 51.0953 137.506 51.2919C139.543 51.4523 141.498 51.1034 143.388 50.3507C143.53 50.2945 143.674 50.2451 143.908 50.1608C143.963 51.0405 143.937 51.8868 144.09 52.6996C144.23 53.4523 143.92 53.7143 143.288 53.9456C140.638 54.9162 137.937 55.205 135.153 54.7144C131.857 54.1341 129.346 51.6502 128.735 48.3614C128.205 45.5031 128.273 42.6942 129.812 40.1407C131.829 36.7918 135.475 35.2984 139.356 36.0792C142.219 36.6554 143.98 38.4161 144.789 41.1688C145.31 42.9455 145.322 44.7571 145.031 46.6983ZM140.761 43.6608C140.897 41.1501 139.468 39.3666 137.409 39.3613C135.257 39.3559 133.377 40.8199 133.294 43.6608C135.769 43.6608 138.245 43.6608 140.761 43.6608Z" fill="white"/>
<path d="M126.06 54.4286C124.493 54.4286 122.991 54.4286 121.39 54.4286C121.39 54.0824 121.392 53.7575 121.39 53.434C121.372 49.8938 121.355 46.3524 121.333 42.8122C121.325 41.5889 120.918 40.5301 119.739 40.0315C118.528 39.5194 117.293 39.6076 116.182 40.3884C115.802 40.6558 115.425 40.9593 115.146 41.3229C114.921 41.6144 114.727 42.0194 114.724 42.3764C114.696 46.0957 114.708 49.815 114.71 53.5342C114.71 53.8003 114.71 54.0677 114.71 54.3992C113.109 54.3992 111.541 54.3992 109.937 54.3992C109.921 54.3538 109.87 54.2735 109.87 54.1933C109.87 48.5596 109.874 42.9245 109.878 37.2908C109.879 36.3737 109.881 36.3817 110.766 36.3723C111.679 36.363 112.592 36.355 113.504 36.3095C113.93 36.2881 114.1 36.4312 114.13 36.8563C114.168 37.4044 114.265 37.9485 114.351 38.6103C114.798 38.2373 115.176 37.9138 115.563 37.5983C117.688 35.8643 120.091 35.4819 122.658 36.2935C124.616 36.9124 125.659 38.3924 125.896 40.3938C126.036 41.5836 126.057 42.7908 126.063 43.9914C126.08 47.2427 126.063 50.4941 126.059 53.7468C126.059 53.9594 126.06 54.1759 126.06 54.4286Z" fill="white"/>
<path d="M68.2104 29.1582C68.2104 30.3975 68.2264 31.6154 68.1837 32.8307C68.1796 32.9457 67.812 33.1395 67.6115 33.1422C65.6743 33.1663 63.7371 33.1582 61.7999 33.1582C61.5579 33.1582 61.316 33.1582 61.0005 33.1582C61.0005 40.2465 61.0005 47.2907 61.0005 54.4004C59.32 54.4004 57.713 54.4004 56.0312 54.4004C56.0312 53.9993 56.0312 53.6063 56.0312 53.2132C56.0312 46.7559 56.0231 40.2987 56.0432 33.8401C56.0445 33.2558 55.8534 33.1502 55.3132 33.1622C53.3988 33.2037 51.4843 33.1917 49.5685 33.1957C49.4402 33.1957 49.3119 33.1716 49.1367 33.1542C49.1367 31.8213 49.1367 30.5165 49.1367 29.1582C55.4723 29.1582 61.8226 29.1582 68.2104 29.1582Z" fill="white"/>
<path d="M58.6104 17.9174C59.8176 17.2182 61.0088 16.4896 62.2334 15.8238C67.0208 13.2222 72.1679 11.9508 77.5931 11.8251C81.4996 11.7342 85.2951 12.4495 89.0344 13.5591C93.5571 14.9 97.7778 16.9562 102.071 18.8519C106.536 20.8239 111.065 22.6461 115.894 23.511C122.259 24.6528 128.604 24.6287 134.885 22.864C142.612 20.6928 149.221 16.6621 154.82 10.9388C154.865 10.892 154.924 10.8559 155.055 10.8585C154.961 11.0003 154.881 11.1527 154.773 11.281C149.452 17.5765 142.957 22.1207 135.008 24.475C128.564 26.3827 122.032 26.8466 115.4 25.63C109.44 24.5365 103.866 22.3279 98.4008 19.7998C94.4195 17.9575 90.4301 16.1353 86.2015 14.9214C81.8645 13.6767 77.4715 13.1099 72.9367 13.5725C67.9152 14.0858 63.228 15.5337 58.8443 18.0097C58.8069 18.0311 58.7614 18.0351 58.7186 18.0471C58.6839 18.003 58.6478 17.9602 58.6104 17.9174Z" fill="white"/>
<path d="M154.009 7.89768C153.922 8.00731 153.843 8.12629 153.746 8.22656C148.35 13.8001 142.036 17.9512 134.597 20.2226C129.409 21.8069 124.072 22.1625 118.662 21.6344C113.732 21.1531 109.075 19.7427 104.561 17.7774C100.419 15.9753 96.312 14.0809 92.1208 12.4031C87.443 10.5301 82.59 9.33219 77.4924 9.44181C72.6982 9.54342 68.1086 10.5595 63.6848 12.4204C60.4173 13.7948 57.3893 15.5421 54.6446 17.7828C54.5684 17.8456 54.4735 17.8844 54.3879 17.9352C54.3558 17.8897 54.3237 17.8429 54.293 17.7975C55.3184 16.9646 56.3291 16.113 57.3719 15.3015C62.1928 11.5501 67.6153 9.14368 73.6487 8.17309C79.6876 7.20115 85.5726 7.91907 91.3588 9.83085C96.0433 11.379 100.45 13.5688 104.95 15.5435C108.916 17.2841 113.006 18.6946 117.28 19.4004C121.556 20.1077 125.866 20.2093 130.181 19.5221C138.895 18.1357 146.441 14.3456 153.044 8.57148C153.335 8.31613 153.628 8.06212 153.919 7.80811C153.95 7.83752 153.98 7.86827 154.009 7.89768Z" fill="white"/>
<path d="M150.535 6.77028C149.251 7.77831 148.009 8.84517 146.676 9.781C142.186 12.9334 137.291 15.2383 131.925 16.4468C128.105 17.3078 124.242 17.618 120.314 17.3212C113.77 16.8252 107.698 14.7623 101.802 12.0324C97.8833 10.2182 93.9608 8.41067 89.8097 7.16467C84.7736 5.65263 79.6412 5.08444 74.4232 5.77161C65.8483 6.9013 58.4752 10.5965 52.1543 16.4575C52.0407 16.5631 51.9284 16.6728 51.8121 16.7757C51.784 16.7998 51.7399 16.8051 51.6289 16.7476C52.3682 16.003 53.0728 15.2182 53.8549 14.5217C56.6717 12.0163 59.5982 9.65934 62.9966 7.9588C69.6932 4.6085 76.7267 3.12186 84.2214 4.01625C89.4942 4.6446 94.4594 6.27028 99.2777 8.43072C103.235 10.2061 107.139 12.1112 111.291 13.4187C116.457 15.0457 121.732 15.9228 127.152 15.5351C131.438 15.2289 135.588 14.2302 139.604 12.6808C143.41 11.2115 146.934 9.24223 150.186 6.77964C150.265 6.72082 150.354 6.67536 150.438 6.62456C150.469 6.67536 150.503 6.72215 150.535 6.77028Z" fill="white"/>
<path d="M146.732 5.75834C145.205 6.61797 143.709 7.54044 142.143 8.32253C138.463 10.1621 134.608 11.5324 130.544 12.2397C129.144 12.483 127.719 12.6929 126.302 12.7116C123.726 12.7464 121.12 12.844 118.58 12.5124C115.881 12.1595 113.229 11.3947 110.584 10.7036C107.144 9.80383 103.976 8.19151 100.726 6.79311C97.044 5.20887 93.3247 3.71554 89.4102 2.79842C85.8447 1.96286 82.2377 1.48291 78.5558 1.66071C74.7256 1.84521 71.0103 2.55644 67.3793 3.78373C61.9595 5.61529 57.1854 8.52039 52.9514 12.3426C52.9032 12.3854 52.8417 12.4148 52.7188 12.4014C52.8137 12.2784 52.8979 12.1461 53.0049 12.0351C58.7415 6.15406 65.6413 2.36928 73.6975 0.823809C79.6053 -0.308553 85.5118 -0.121385 91.3862 1.30911C96.1736 2.47489 100.659 4.41876 105.158 6.35193C108.985 7.99633 112.877 9.45356 116.98 10.2637C122.892 11.4308 128.784 11.4255 134.677 10.0672C138.868 9.10061 142.814 7.52172 146.639 5.59123C146.669 5.64738 146.701 5.70219 146.732 5.75834Z" fill="white"/>
<path d="M148.296 39.8782C147.459 39.8782 146.686 39.8782 145.848 39.8782C145.848 38.7257 145.848 37.6241 145.848 36.445C146.465 36.4075 147.12 36.3541 147.775 36.334C148.242 36.3206 148.461 36.1241 148.472 35.6468C148.493 34.7578 148.582 33.8701 148.572 32.9824C148.567 32.4476 148.65 32.1308 149.265 32.0265C150.443 31.8246 151.606 31.5399 152.969 31.2471C152.969 32.5292 152.971 33.6762 152.969 34.8233C152.968 36.4062 152.967 36.4062 154.582 36.4049C155.424 36.4049 156.266 36.4049 157.231 36.4049C157.231 37.4757 157.249 38.4931 157.207 39.5078C157.202 39.6241 156.869 39.8153 156.685 39.8193C155.639 39.8421 154.591 39.834 153.546 39.802C153.108 39.7886 152.976 39.9236 152.98 40.3715C152.999 42.9103 152.96 45.4491 152.995 47.9878C153.004 48.6844 153.135 49.3983 153.33 50.0681C153.527 50.7392 154.12 51.0347 154.792 51.0266C155.558 51.0173 156.324 50.917 157.177 50.8502C157.23 51.8341 157.301 52.8916 157.328 53.9505C157.33 54.0735 157.111 54.2633 156.957 54.3181C155.145 54.9759 153.297 55.0454 151.451 54.5079C149.849 54.0414 148.905 52.905 148.575 51.3034C148.401 50.4611 148.332 49.5841 148.322 48.7231C148.296 45.9624 148.318 43.2004 148.321 40.4383C148.321 40.2832 148.308 40.1295 148.296 39.8782Z" fill="white"/>
<path d="M83.7158 28.5469C85.2145 28.5469 86.6971 28.5469 88.2546 28.5469C88.2546 37.1673 88.2546 45.7502 88.2546 54.392C86.7934 54.392 85.2947 54.392 83.7158 54.392C83.7158 45.805 83.7158 37.2074 83.7158 28.5469Z" fill="white"/>
<path d="M44.0099 32.3681C44.0165 31.5058 43.8267 30.7852 43.2505 30.1782C42.6703 29.5659 42.1074 28.9135 41.4283 28.4282C40.9764 28.1047 40.3387 27.8961 39.7812 27.8881C36.5753 27.836 33.3667 27.86 30.1595 27.86C30.0191 27.86 29.8801 27.8961 29.6114 27.9349C30.356 28.8199 31.0138 29.6261 31.7076 30.3988C31.8253 30.5312 32.102 30.5633 32.3079 30.5673C34.3788 30.6087 36.4496 30.6261 38.5205 30.6662C39.4991 30.6849 40.3962 31.3387 40.7064 32.2518C40.9189 32.8748 40.7785 33.4283 40.3066 33.9029C39.8334 34.3788 39.3066 34.5285 38.6702 34.2598C37.7986 33.8922 37.6087 33.201 37.828 32.2799C37.4857 32.2799 37.2451 32.2799 37.0058 32.2799C35.1127 32.2745 33.2197 32.2571 31.3266 32.2718C30.717 32.2772 30.3119 32.0646 29.9416 31.5553C29.118 30.4229 28.2303 29.3333 27.3252 28.2638C27.1448 28.0499 26.7758 27.8894 26.4923 27.8881C23.3747 27.864 20.2557 27.8761 17.1367 27.8774C13.1273 27.8788 9.11788 27.9189 5.10849 27.86C3.01355 27.8293 0.434653 29.6756 0.611125 32.3186C0.694014 33.5606 0.613799 34.812 0.613799 36.0593C0.615136 41.2051 0.604441 46.3495 0.627168 51.4953C0.637864 53.9485 2.71542 56.1022 5.0871 56.1116C11.5684 56.1357 18.0498 56.1357 24.5311 56.1129C24.8774 56.1116 25.2945 55.8897 25.5525 55.641C26.2383 54.9766 26.8546 54.2413 27.4964 53.5314C27.7891 53.2065 28.0766 52.8763 28.475 52.4257C27.5218 52.4257 26.7316 52.4257 25.9081 52.4257C25.9081 50.5113 25.8827 48.7118 25.9215 46.9137C25.9362 46.2679 26.4723 45.8682 27.1434 45.8602C28.8801 45.8415 30.618 45.8481 32.3547 45.8C32.8587 45.7853 32.9616 45.9805 32.9536 46.4163C32.9349 47.3294 32.987 48.2452 32.9296 49.1543C32.9055 49.5447 32.7718 49.9979 32.5298 50.292C31.1662 51.9378 29.7517 53.5394 28.3613 55.1637C28.1113 55.4552 27.8948 55.7747 27.622 56.1343C27.8186 56.1704 27.8801 56.1905 27.9429 56.1905C31.3066 56.1878 34.6689 56.1931 38.0325 56.1624C38.3534 56.1597 38.7478 55.9993 38.9777 55.7774C40.3695 54.4324 41.7237 53.0487 43.0887 51.6757C43.7866 50.9739 44.0099 50.1503 44.0032 49.141C43.9577 43.55 43.9684 37.959 44.0099 32.3681ZM12.2315 31.6876C14.1326 31.6876 16.0711 31.6876 18.0912 31.6876C18.0912 33.9523 18.0912 36.209 18.0912 38.5259C16.1473 38.5259 14.2262 38.5259 12.2315 38.5259C12.2315 36.2826 12.2315 34.0272 12.2315 31.6876ZM4.58442 33.5218C4.63923 32.5994 5.89325 31.6876 6.93203 31.6555C8.24487 31.6141 9.55906 31.6127 10.8732 31.6381C11.0457 31.6408 11.3599 31.8975 11.3625 32.0406C11.3946 34.1729 11.3839 36.3066 11.3839 38.5286C9.04167 38.5286 6.82508 38.5286 4.55768 38.5286C4.55634 36.8401 4.48549 35.1756 4.58442 33.5218ZM4.45206 39.4898C6.79165 39.4898 9.0283 39.4898 11.3184 39.4898C11.3184 41.5914 11.3184 43.6703 11.3184 45.7947C11.1152 45.8174 10.92 45.8575 10.7248 45.8588C8.85584 45.8762 6.98551 45.8802 5.11517 45.907C4.64725 45.9137 4.43468 45.7773 4.44137 45.2626C4.46677 43.3722 4.45206 41.4818 4.45206 39.4898ZM12.0257 52.4244C10.2743 52.4244 8.52162 52.4418 6.77026 52.4177C5.63523 52.403 4.50287 51.2573 4.48816 50.1329C4.47613 49.1543 4.5149 48.1757 4.51223 47.1971C4.51089 46.8548 4.64191 46.7238 4.98282 46.7225C6.94005 46.7198 8.89729 46.7091 10.8545 46.6904C11.2248 46.6864 11.3706 46.8187 11.3478 47.2024C11.3131 47.8014 11.3305 48.403 11.3144 49.0033C11.2823 50.1771 11.1152 51.3789 12.1727 52.3081C12.1246 52.3469 12.0751 52.3856 12.0257 52.4244ZM18.0658 52.4257C16.5484 52.4257 15.1259 52.4699 13.7088 52.407C13.0163 52.3763 12.1767 51.272 12.1727 50.51C12.158 46.9912 12.1674 43.4725 12.1513 39.9537C12.15 39.5125 12.3585 39.4444 12.7262 39.4444C14.4856 39.443 16.2436 39.427 18.003 39.4163C18.2677 39.4149 18.5324 39.4163 18.9214 39.4163C18.9214 38.8949 18.9201 38.4136 18.9214 37.9323C18.9281 36.062 18.9522 34.1903 18.9308 32.32C18.9254 31.816 19.027 31.6061 19.5832 31.6168C21.1862 31.6502 22.7904 31.6381 24.3934 31.6194C24.8827 31.6141 25.0378 31.7812 25.0351 32.2825C25.0164 35.1328 25.0338 37.9831 25.0378 40.8347C25.0391 41.7465 23.9469 42.8602 23.007 42.8775C22.0939 42.8936 21.1795 42.8508 20.269 42.8922C19.9642 42.9056 19.6126 43.034 19.3773 43.2251C18.5177 43.927 18.0016 44.7719 18.0431 45.9765C18.1193 48.0875 18.0658 50.2011 18.0658 52.4257ZM32.3721 44.9845C30.725 44.9685 29.0779 44.9778 27.4322 44.9885C25.9429 44.9979 25.0364 45.9083 25.0378 47.3736C25.0391 48.8428 25.0244 50.3108 25.0498 51.78C25.0578 52.2573 24.9442 52.4485 24.4215 52.4391C22.7757 52.411 21.1273 52.4231 19.4816 52.4445C19.0217 52.4498 18.8693 52.3041 18.8746 51.8281C18.8987 49.7145 18.8853 47.6008 18.8813 45.4872C18.88 44.6516 19.7664 43.7238 20.5926 43.7064C21.3934 43.6904 22.1942 43.6663 22.995 43.6556C24.3787 43.6369 25.7691 42.2585 25.7891 40.8575C25.8038 39.8655 25.7918 38.8735 25.7918 37.7879C26.0217 37.951 26.2383 38.0847 26.4322 38.2438C27.4242 39.0607 28.4964 39.5821 29.8453 39.4684C30.836 39.3855 31.8386 39.4524 32.9483 39.4524C32.9483 39.939 32.9483 40.3508 32.9483 40.7625C32.951 41.9644 32.9282 43.1663 32.967 44.3669C32.983 44.8455 32.836 44.9885 32.3721 44.9845ZM32.959 38.0794C32.959 38.4256 32.8868 38.6048 32.479 38.6034C31.3012 38.5981 30.118 38.701 28.9469 38.6248C28.4335 38.5914 27.8921 38.3013 27.4482 38.0005C26.2784 37.2064 25.5111 36.1769 25.8212 34.6422C25.86 34.4497 25.8266 34.2438 25.8266 34.0432C25.8386 34.0432 25.8493 34.0432 25.8613 34.0432C25.8613 33.4202 25.8814 32.7972 25.8546 32.1756C25.8373 31.7905 25.9843 31.6676 26.3533 31.6702C27.1087 31.6756 27.868 31.6061 28.6194 31.6542C28.9081 31.6729 29.2397 31.8654 29.4549 32.078C30.1729 32.7865 30.7477 33.6154 31.8587 33.8601C32.6314 34.0299 33.0111 34.7919 32.9977 35.6128C32.9844 36.435 32.9576 37.2572 32.959 38.0794Z" fill="white"/>
</g>
<defs>
<clipPath id="clip0_136_2169">
<rect width="156.729" height="56.1007" fill="white" transform="translate(0.602539 0.0898438)"/>
</clipPath>
</defs>
</svg>
