<svg width="182" height="42" viewBox="0 0 182 42" fill="none" xmlns="http://www.w3.org/2000/svg">
<g style="mix-blend-mode:soft-light">
<path d="M76.0449 34.6384C75.1481 34.6384 74.4212 33.9115 74.4212 33.0147V8.71004C74.4212 7.81327 75.1481 7.08637 76.0449 7.08637C76.9416 7.08637 77.6685 7.81327 77.6685 8.71004V33.0144C77.6685 33.9112 76.9416 34.6381 76.0449 34.6381V34.6384ZM99.9033 26.8024V14.9224C99.9033 14.0256 99.1764 13.2987 98.2796 13.2987C97.3829 13.2987 96.656 14.0256 96.656 14.9224V26.8024C96.656 27.6991 97.3829 28.426 98.2796 28.426C99.1764 28.426 99.9033 27.6991 99.9033 26.8024ZM92.5209 22.9052V18.8195C92.5209 17.9227 91.794 17.1958 90.8972 17.1958C90.0004 17.1958 89.2735 17.9227 89.2735 18.8195V22.9052C89.2735 23.802 90.0004 24.5289 90.8972 24.5289C91.794 24.5289 92.5209 23.802 92.5209 22.9052ZM85.0947 26.8024V14.9224C85.0947 14.0256 84.3678 13.2987 83.471 13.2987C82.5742 13.2987 81.8474 14.0256 81.8474 14.9224V26.8024C81.8474 27.6991 82.5742 28.426 83.471 28.426C84.3678 28.426 85.0947 27.6991 85.0947 26.8024ZM181.591 22.9052V18.8195C181.591 17.9227 180.864 17.1958 179.967 17.1958C179.071 17.1958 178.344 17.9227 178.344 18.8195V22.9052C178.344 23.802 179.071 24.5289 179.967 24.5289C180.864 24.5289 181.591 23.802 181.591 22.9052ZM174.165 26.8024V14.9224C174.165 14.0256 173.438 13.2987 172.541 13.2987C171.645 13.2987 170.918 14.0256 170.918 14.9224V26.8024C170.918 27.6991 171.645 28.426 172.541 28.426C173.438 28.426 174.165 27.6991 174.165 26.8024ZM1.78285 24.5289C2.67962 24.5289 3.40652 23.802 3.40652 22.9052V18.8195C3.40652 17.9227 2.67962 17.1958 1.78285 17.1958C0.886077 17.1958 0.15918 17.9227 0.15918 18.8195V22.9052C0.15918 23.802 0.886077 24.5289 1.78285 24.5289ZM9.20902 28.426C10.1058 28.426 10.8327 27.6991 10.8327 26.8024V14.9224C10.8327 14.0256 10.1058 13.2987 9.20902 13.2987C8.31224 13.2987 7.58535 14.0256 7.58535 14.9224V26.8024C7.58535 27.6991 8.31224 28.426 9.20902 28.426ZM107.329 33.0144V8.71004C107.329 7.81327 106.603 7.08637 105.706 7.08637C104.809 7.08637 104.082 7.81327 104.082 8.71004V33.0144C104.082 33.9112 104.809 34.6381 105.706 34.6381C106.603 34.6381 107.329 33.9112 107.329 33.0144ZM114.756 39.8942V1.83021C114.756 0.93344 114.029 0.206543 113.132 0.206543C112.235 0.206543 111.508 0.93344 111.508 1.83021V39.8939C111.508 40.7906 112.235 41.5175 113.132 41.5175C114.029 41.5175 114.756 40.7906 114.756 39.8939V39.8942ZM122.182 33.0144V8.71004C122.182 7.81327 121.455 7.08637 120.558 7.08637C119.661 7.08637 118.934 7.81327 118.934 8.71004V33.0144C118.934 33.9112 119.661 34.6381 120.558 34.6381C121.455 34.6381 122.182 33.9112 122.182 33.0144ZM129.608 26.802V14.922C129.608 14.0253 128.881 13.2984 127.984 13.2984C127.088 13.2984 126.361 14.0253 126.361 14.922V26.802C126.361 27.6988 127.088 28.4257 127.984 28.4257C128.881 28.4257 129.608 27.6988 129.608 26.802ZM137.034 33.0144V8.71004C137.034 7.81327 136.307 7.08637 135.41 7.08637C134.514 7.08637 133.787 7.81327 133.787 8.71004V33.0144C133.787 33.9112 134.514 34.6381 135.41 34.6381C136.307 34.6381 137.034 33.9112 137.034 33.0144ZM144.46 39.8942V1.83021C144.46 0.93344 143.733 0.206543 142.837 0.206543C141.94 0.206543 141.213 0.93344 141.213 1.83021V39.8939C141.213 40.7906 141.94 41.5175 142.837 41.5175C143.733 41.5175 144.46 40.7906 144.46 39.8939V39.8942ZM151.886 33.0144V8.71004C151.886 7.81327 151.16 7.08637 150.263 7.08637C149.366 7.08637 148.639 7.81327 148.639 8.71004V33.0144C148.639 33.9112 149.366 34.6381 150.263 34.6381C151.16 34.6381 151.886 33.9112 151.886 33.0144ZM159.313 26.802V14.922C159.313 14.0253 158.586 13.2984 157.689 13.2984C156.792 13.2984 156.065 14.0253 156.065 14.922V26.802C156.065 27.6988 156.792 28.4257 157.689 28.4257C158.586 28.4257 159.313 27.6988 159.313 26.802ZM166.739 33.0144V8.71004C166.739 7.81327 166.012 7.08637 165.115 7.08637C164.218 7.08637 163.491 7.81327 163.491 8.71004V33.0144C163.491 33.9112 164.218 34.6381 165.115 34.6381C166.012 34.6381 166.739 33.9112 166.739 33.0144ZM18.2589 33.0144V8.71004C18.2589 7.81327 17.532 7.08637 16.6352 7.08637C15.7384 7.08637 15.0115 7.81327 15.0115 8.71004V33.0144C15.0115 33.9112 15.7384 34.6381 16.6352 34.6381C17.532 34.6381 18.2589 33.9112 18.2589 33.0144ZM25.685 26.802V14.922C25.685 14.0253 24.9581 13.2984 24.0614 13.2984C23.1646 13.2984 22.4377 14.0253 22.4377 14.922V26.802C22.4377 27.6988 23.1646 28.4257 24.0614 28.4257C24.9581 28.4257 25.685 27.6988 25.685 26.802ZM33.1112 33.0144V8.71004C33.1112 7.81327 32.3843 7.08637 31.4875 7.08637C30.5907 7.08637 29.8638 7.81327 29.8638 8.71004V33.0144C29.8638 33.9112 30.5907 34.6381 31.4875 34.6381C32.3843 34.6381 33.1112 33.9112 33.1112 33.0144ZM40.5374 39.8942V1.83021C40.5374 0.93344 39.8105 0.206543 38.9137 0.206543C38.0169 0.206543 37.29 0.93344 37.29 1.83021V39.8939C37.29 40.7906 38.0169 41.5175 38.9137 41.5175C39.8105 41.5175 40.5374 40.7906 40.5374 39.8939V39.8942ZM47.9635 33.0144V8.71004C47.9635 7.81327 47.2366 7.08637 46.3399 7.08637C45.4431 7.08637 44.7162 7.81327 44.7162 8.71004V33.0144C44.7162 33.9112 45.4431 34.6381 46.3399 34.6381C47.2366 34.6381 47.9635 33.9112 47.9635 33.0144ZM55.3897 26.802V14.922C55.3897 14.0253 54.6628 13.2984 53.766 13.2984C52.8692 13.2984 52.1423 14.0253 52.1423 14.922V26.802C52.1423 27.6988 52.8692 28.4257 53.766 28.4257C54.6628 28.4257 55.3897 27.6988 55.3897 26.802ZM62.8159 33.0144V8.71004C62.8159 7.81327 62.089 7.08637 61.1922 7.08637C60.2954 7.08637 59.5685 7.81327 59.5685 8.71004V33.0144C59.5685 33.9112 60.2954 34.6381 61.1922 34.6381C62.089 34.6381 62.8159 33.9112 62.8159 33.0144ZM70.242 39.8942V1.83021C70.242 0.93344 69.5151 0.206543 68.6184 0.206543C67.7216 0.206543 66.9947 0.93344 66.9947 1.83021V39.8939C66.9947 40.7906 67.7216 41.5175 68.6184 41.5175C69.5151 41.5175 70.242 40.7906 70.242 39.8939V39.8942Z" fill="#E1EDFE"/>
</g>
</svg>
